<svg xmlns="http://www.w3.org/2000/svg" width="62" height="64" viewBox="0 0 62 64" fill="none"><path d="M61.6478 40.572L32.9852 17.7556C32.4991 17.3686 31.7601 17.5806 31.5459 18.1687L22.8259 42.0887C22.464 43.0835 20.8692 42.4852 21.2312 41.4902L34.3072 5.48274H36.1426L35.0136 8.5862C34.794 9.18979 35.2479 9.8506 35.8819 9.8506H61.0765C62.2348 9.8506 62.2875 7.97222 61.0765 7.97222H37.2101L38.7676 3.69077C39.3863 1.93298 38.0285 0 36.192 0H22.6992C19.108 0 16.02 3.06113 16.0818 6.73011C16.1423 10.3146 19.0659 13.2308 22.5989 13.2308H25.5294C29.0337 13.2308 29.1041 7.74794 25.5798 7.74794H22.6534C22.0412 7.74794 21.4729 7.23289 21.4835 6.59587C21.4935 5.98214 21.9939 5.48287 22.5989 5.48287H32.3346L27.042 20.0572C13.5014 16.6546 -0.177443 27.6074 0.00174144 41.7898C1.20939 71.406 42.7898 71.4009 43.9946 41.7896C44.071 33.5972 39.3009 25.692 32.1311 21.9774L32.8415 20.0285L60.5053 42.0499C61.4166 42.7752 62.6006 41.3305 61.6478 40.572ZM19.6326 6.56444C19.6051 8.23595 21.02 9.62632 22.6534 9.62632H25.5798C26.7031 9.62632 26.6624 11.3524 25.5294 11.3524H22.5989C20.0693 11.3524 17.976 9.26442 17.9327 6.69805C17.8882 4.06807 20.1329 1.87838 22.6992 1.87838H36.192C37.2948 1.87838 37.3489 3.60449 36.2334 3.60449H22.5987C20.9899 3.60449 19.6594 4.93238 19.6326 6.56444ZM21.175 36.2125C20.9518 36.246 20.733 36.2928 20.5192 36.3522L15.8767 26.1362C18.7664 24.9573 22.0738 24.6398 25.1551 25.2528L21.175 36.2125ZM14.1978 26.9272L18.8402 37.1428C18.138 37.6307 17.5506 38.2755 17.1265 39.025L6.75152 35.1425C8.23399 31.6503 10.8939 28.7198 14.1978 26.9272ZM19.2139 46.7956L15.4163 57.2449C12.0186 55.7722 9.09721 53.0306 7.36954 49.7287L17.3585 45.0545C17.8383 45.7674 18.4733 46.3647 19.2139 46.7956ZM20.9503 47.4469C21.7859 47.6075 22.656 47.5736 23.477 47.3458L28.0749 57.4632C24.7269 58.837 20.6535 59.0144 17.1535 57.8943L20.9503 47.4469ZM29.7555 56.6761L25.1569 46.5572C25.8596 46.0702 26.4483 45.4259 26.8729 44.6743L37.2012 48.5393C35.6927 52.0262 33.0525 54.8989 29.7555 56.6761ZM38.5923 41.7897C38.5923 43.5263 38.3319 45.2023 37.8489 46.7797L27.5146 42.9123C27.6738 42.0766 27.6384 41.1698 27.4135 40.3491L37.4508 35.6522C38.2022 37.5963 38.5923 39.6745 38.5923 41.7897ZM26.6385 38.6434C26.5177 38.463 26.3864 38.2894 26.2453 38.1234L30.2368 27.1738C32.9534 28.7532 35.2126 31.121 36.6789 33.945L26.6385 38.6434ZM22.1289 44.4848C23.2245 44.4848 24.1835 43.7809 24.5624 42.7398L25.4452 40.3179C26.5535 42.7751 24.665 45.7105 21.9981 45.6683C17.9762 45.6093 16.8115 40.1769 20.38 38.4017L19.4945 40.8401C18.8308 42.6646 20.2696 44.4848 22.1289 44.4848ZM38.9231 30.7106C47.602 44.0592 37.7667 62.3775 21.9979 62.2369C10.8898 62.237 1.8527 53.0644 1.8527 41.7897C1.69745 28.8881 14.0418 18.8849 26.3968 21.8334L25.8027 23.4692C15.2732 21.0637 4.48358 29.2309 3.62566 40.1192C3.51867 41.3418 5.36259 41.5056 5.46946 40.2854C5.57053 39.1308 5.78859 37.9994 6.11537 36.9062L16.4824 40.7858C16.3228 41.6334 16.3569 42.5165 16.5813 43.3495L6.58616 48.0267C6.17115 46.9757 5.85942 45.8808 5.66198 44.7578C5.45836 43.6008 3.6269 43.878 3.83953 45.0878C5.23931 53.7858 13.2948 60.6518 21.9981 60.5106C41.0427 60.29 47.4168 34.8967 30.887 25.3897L31.4832 23.7542C34.4959 25.3921 37.0543 27.7805 38.9231 30.7106Z" fill="#FF6600"></path><path d="M61.0766 11.5769H50.0112C48.8529 11.5769 48.8002 13.4552 50.0112 13.4552H61.0766C62.2348 13.4552 62.2875 11.5769 61.0766 11.5769Z" fill="#FF6600"></path><path d="M45.0749 13.4552C46.2332 13.4552 46.2859 11.5769 45.0749 11.5769H34.5705C34.1806 11.5769 33.8325 11.8249 33.6999 12.1972L32.8975 14.4529C32.7613 14.8363 32.8841 15.2651 33.2017 15.5146L60.5101 36.9564C61.4471 37.6922 62.5868 36.2121 61.643 35.4709L34.8675 14.4474L35.2204 13.4552H45.0749Z" fill="#FF6600"></path></svg>