<svg xmlns="http://www.w3.org/2000/svg" width="58" height="68" viewBox="0 0 58 68" fill="none"><path d="M29.4805 39.7642C22.3544 39.7776 15.5244 42.624 10.4879 47.6793C5.45142 52.7346 2.61938 59.5864 2.6127 66.7323C2.6127 67.0685 2.74589 67.391 2.98297 67.6287C3.22004 67.8664 3.54159 68 3.87687 68H55.1178C55.4531 68 55.7746 67.8664 56.0117 67.6287C56.2488 67.391 56.382 67.0685 56.382 66.7323C56.3753 59.5805 53.5386 52.7237 48.4948 47.6674C43.451 42.6111 36.6124 39.7687 29.4805 39.7642ZM5.14103 65.4646C5.44865 59.2025 8.1459 53.2989 12.6743 48.976C17.2028 44.6531 23.2156 42.242 29.4678 42.242C35.7201 42.242 41.7329 44.6531 46.2613 48.976C50.7897 53.2989 53.487 59.2025 53.7946 65.4646H5.14103Z" fill="#212121"></path><path d="M29.0337 6.02658C25.9593 6.02491 22.9535 6.9377 20.3965 8.64948C17.8396 10.3612 15.8463 12.7951 14.669 15.6431C13.4917 18.4911 13.1833 21.6252 13.7827 24.6491C14.382 27.6729 15.8623 30.4505 18.0363 32.6305C20.2102 34.8105 22.9801 36.2949 25.9955 36.896C29.0109 37.497 32.1363 37.1877 34.9764 36.0071C37.8165 34.8265 40.2435 32.8278 41.9505 30.2637C43.6575 27.6995 44.5678 24.6853 44.5661 21.6023C44.5617 17.4728 42.9238 13.5136 40.0119 10.5936C37.0999 7.67351 33.1518 6.03106 29.0337 6.02658ZM29.0337 34.6512C26.4597 34.6528 23.9431 33.889 21.8021 32.4562C19.6611 31.0233 17.9919 28.986 17.0057 26.6018C16.0195 24.2176 15.7607 21.5936 16.2618 19.0618C16.7629 16.5301 18.0016 14.2042 19.8211 12.3784C21.6406 10.5527 23.9592 9.30905 26.4836 8.80488C29.008 8.3007 31.6248 8.55861 34.003 9.546C36.3812 10.5334 38.414 12.2059 39.8442 14.3519C41.2744 16.498 42.0378 19.0212 42.0378 21.6023C42.0355 25.061 40.665 28.3774 38.227 30.8238C35.789 33.2702 32.4827 34.6467 29.0337 34.6512Z" fill="#212121"></path><path d="M9.92793 29.9691C10.2632 29.9691 10.5848 29.8356 10.8218 29.5978C11.0589 29.3601 11.1921 29.0376 11.1921 28.7014V14.7568C11.2348 14.6986 11.2715 14.6364 11.3017 14.5708C12.7005 11.0158 15.1303 7.96303 18.2771 5.807C21.4239 3.65097 25.1432 2.49072 28.9543 2.47616C32.7655 2.4616 36.4934 3.5934 39.6565 5.72532C42.8196 7.85725 45.2725 10.8913 46.6983 14.4356V28.7183C45.7635 31.0805 44.3649 33.2302 42.5856 35.0399C42.3489 35.2776 42.2159 35.5998 42.2159 35.9358C42.2159 36.2717 42.3489 36.5939 42.5856 36.8316C42.8103 37.0557 43.1116 37.1856 43.4284 37.195C43.5957 37.1955 43.7614 37.1629 43.9162 37.0991C44.0709 37.0353 44.2116 36.9415 44.3301 36.8231C46.3014 34.8595 47.8754 32.5321 48.9654 29.9691H49.5722C51.8074 29.9691 53.951 29.0787 55.5316 27.4938C57.1121 25.9089 58 23.7592 58 21.5178C58 19.2764 57.1121 17.1268 55.5316 15.5418C53.951 13.9569 51.8074 13.0665 49.5722 13.0665H48.8811C47.2135 9.1867 44.4492 5.88166 40.9295 3.55956C37.4098 1.23746 33.289 0 29.0759 0C24.8627 0 20.7419 1.23746 17.2222 3.55956C13.7025 5.88166 10.9382 9.1867 9.27056 13.0665H8.42778C6.1926 13.0665 4.04896 13.9569 2.46844 15.5418C0.887924 17.1268 0 19.2764 0 21.5178C0 23.7592 0.887924 25.9089 2.46844 27.4938C4.04896 29.0787 6.1926 29.9691 8.42778 29.9691H9.92793ZM49.2351 15.6019H49.5385C51.1031 15.6019 52.6037 16.2252 53.71 17.3346C54.8164 18.4441 55.438 19.9488 55.438 21.5178C55.438 23.0868 54.8164 24.5916 53.71 25.701C52.6037 26.8105 51.1031 27.4337 49.5385 27.4337H49.2351V15.6019ZM2.46091 21.5178C2.46091 19.9488 3.08246 18.4441 4.18882 17.3346C5.29518 16.2252 6.79573 15.6019 8.36036 15.6019H8.66376V27.4337H8.36036C6.79573 27.4337 5.29518 26.8105 4.18882 25.701C3.08246 24.5916 2.46091 23.0868 2.46091 21.5178Z" fill="#212121"></path></svg>