<svg xmlns="http://www.w3.org/2000/svg" width="72" height="64" viewBox="0 0 72 64" fill="none"><path d="M49.7825 31.9401C49.7825 31.6013 49.6501 31.2763 49.4145 31.0367C49.1789 30.7971 48.8593 30.6625 48.526 30.6625H37.2181V13.202C37.2181 12.8632 37.0857 12.5382 36.8501 12.2986C36.6145 12.059 36.2949 11.9244 35.9617 11.9244C35.6284 11.9244 35.3089 12.059 35.0732 12.2986C34.8376 12.5382 34.7052 12.8632 34.7052 13.202V31.9401C34.7052 32.279 34.8376 32.6039 35.0732 32.8435C35.3089 33.0831 35.6284 33.2177 35.9617 33.2177H48.526C48.8593 33.2177 49.1789 33.0831 49.4145 32.8435C49.6501 32.6039 49.7825 32.279 49.7825 31.9401Z" fill="#212121"></path><path d="M6.45211 26.6679C6.64069 26.6671 6.82671 26.6235 6.99656 26.5402L17.5674 21.2935C17.8418 21.1314 18.0458 20.8697 18.1383 20.561C18.2308 20.2523 18.205 19.9195 18.066 19.6293C17.9271 19.3392 17.6853 19.1132 17.3892 18.9969C17.0932 18.8806 16.7648 18.8826 16.4701 19.0023L8.43728 22.997C10.3122 17.0475 14.0025 11.8603 18.9729 8.18784C23.9433 4.51542 29.9352 2.54889 36.0791 2.57357C42.223 2.59825 48.1994 4.61286 53.1411 8.3251C58.0828 12.0373 61.7327 17.2541 63.5614 23.2184C63.8802 24.2643 64.1403 25.3279 64.3403 26.4039C64.398 26.6933 64.5519 26.9537 64.7761 27.1414C65.0004 27.3291 65.2812 27.4325 65.5716 27.4345H65.8146C66.1403 27.3665 66.427 27.1716 66.6133 26.8914C66.7995 26.6113 66.8706 26.2682 66.8113 25.9354C66.5967 24.7844 66.317 23.6469 65.9737 22.5285C64.0167 15.9923 60.0405 10.2712 54.6346 6.21332C49.2287 2.15544 42.6809 -0.0232533 35.9616 0.000187182C29.3711 0.0243307 22.9532 2.14461 17.6073 6.06389C12.2613 9.98317 8.2553 15.505 6.15056 21.8556L2.42313 14.0878C2.35903 13.9248 2.26255 13.7769 2.13972 13.6534C2.01689 13.5299 1.87035 13.4336 1.70924 13.3703C1.54814 13.307 1.37593 13.2781 1.20337 13.2856C1.03081 13.293 0.861609 13.3365 0.70633 13.4134C0.551052 13.4903 0.413031 13.5989 0.300887 13.7325C0.188743 13.866 0.104884 14.0217 0.054547 14.1897C0.00420994 14.3577 -0.0115243 14.5344 0.00832685 14.7089C0.028178 14.8833 0.0831883 15.0517 0.169922 15.2036L5.32131 25.9525C5.42493 26.1675 5.58588 26.3486 5.78582 26.4751C5.98575 26.6016 6.21663 26.6684 6.45211 26.6679Z" fill="#212121"></path><path d="M71.8874 49.4007L66.7276 38.6177C66.5814 38.3145 66.3231 38.0825 66.0092 37.9724C65.6953 37.8623 65.3513 37.883 65.0524 38.03L54.4815 43.2682C54.333 43.342 54.2003 43.4448 54.0909 43.5708C53.9815 43.6968 53.8975 43.8435 53.8439 44.0025C53.7902 44.1614 53.7678 44.3296 53.7781 44.4973C53.7883 44.6651 53.831 44.8292 53.9036 44.9802C53.9762 45.1312 54.0773 45.2661 54.2012 45.3774C54.3251 45.4886 54.4693 45.574 54.6257 45.6286C54.782 45.6831 54.9474 45.7059 55.1124 45.6955C55.2774 45.685 55.4387 45.6417 55.5872 45.5679L63.1845 41.7947C61.0615 47.8759 57.0289 53.0775 51.7093 56.5963C46.3897 60.1151 40.0789 61.7555 33.7512 61.2642C27.4235 60.7729 21.4308 58.1772 16.6982 53.878C11.9657 49.5787 8.75652 43.8149 7.56617 37.4764C7.53537 37.3086 7.47238 37.1487 7.38078 37.0056C7.28918 36.8626 7.17078 36.7393 7.03233 36.6428C6.89388 36.5464 6.7381 36.4785 6.57387 36.4433C6.40965 36.408 6.2402 36.406 6.0752 36.4373C5.9102 36.4686 5.75289 36.5327 5.61224 36.6258C5.47159 36.7189 5.35035 36.8393 5.25546 36.9801C5.16057 37.1209 5.09387 37.2793 5.05919 37.4463C5.0245 37.6133 5.0225 37.7856 5.0533 37.9534C6.3369 44.8973 9.84801 51.2126 15.0373 55.9113C20.2266 60.6101 26.8013 63.4271 33.7327 63.9216C40.6641 64.4162 47.5613 62.5603 53.345 58.6445C59.1287 54.7287 63.4727 48.9738 65.6973 42.2802L69.6342 50.4823C69.7358 50.6996 69.896 50.883 70.0963 51.0112C70.2965 51.1394 70.5284 51.207 70.765 51.2063C70.9547 51.2067 71.1416 51.1599 71.3094 51.07C71.5991 50.9215 71.821 50.6648 71.9287 50.3536C72.0364 50.0424 72.0216 49.701 71.8874 49.4007Z" fill="#212121"></path><path d="M34.7052 50.6783V56.6404C34.7052 56.9792 34.8376 57.3042 35.0732 57.5438C35.3089 57.7834 35.6284 57.918 35.9617 57.918C36.2949 57.918 36.6145 57.7834 36.8501 57.5438C37.0857 57.3042 37.2181 56.9792 37.2181 56.6404V50.6783C37.2181 50.3394 37.0857 50.0145 36.8501 49.7749C36.6145 49.5353 36.2949 49.4007 35.9617 49.4007C35.6284 49.4007 35.3089 49.5353 35.0732 49.7749C34.8376 50.0145 34.7052 50.3394 34.7052 50.6783Z" fill="#212121"></path><path d="M22.0654 43.8303L17.9191 48.089C17.7097 48.3348 17.5997 48.6521 17.6111 48.9771C17.6226 49.3021 17.7546 49.6106 17.9808 49.8405C18.2069 50.0704 18.5103 50.2047 18.8299 50.2164C19.1495 50.228 19.4616 50.1161 19.7033 49.9032L23.8495 45.6445C24.0589 45.3987 24.169 45.0814 24.1575 44.7564C24.1461 44.4315 24.014 44.123 23.7879 43.893C23.5617 43.6631 23.2583 43.5288 22.9388 43.5171C22.6192 43.5055 22.3071 43.6174 22.0654 43.8303Z" fill="#212121"></path></svg>