<svg xmlns="http://www.w3.org/2000/svg" width="66" height="72" viewBox="0 0 66 72" fill="none"><path d="M65.4791 19.2646L36.9907 0.187459C36.8007 0.065057 36.5797 0 36.354 0C36.1283 0 35.9073 0.065057 35.7173 0.187459L0.52023 23.7841C0.360187 23.891 0.228931 24.036 0.138162 24.2063C0.0473925 24.3765 -7.16577e-05 24.5667 8.12005e-08 24.7598V51.3461C8.22408e-05 51.5353 0.0460945 51.7217 0.134045 51.889C0.221995 52.0563 0.349227 52.1995 0.504701 52.3062L28.4574 71.8205C28.547 71.8771 28.6435 71.9217 28.7447 71.9532H28.8068C28.9074 71.9845 29.0121 72.0003 29.1174 72C29.2201 71.9997 29.3221 71.9839 29.4202 71.9532C29.443 71.9599 29.4672 71.9599 29.4901 71.9532C29.5835 71.9243 29.6724 71.8822 29.7541 71.8283L65.4791 47.8023C65.6408 47.6952 65.7731 47.549 65.864 47.3772C65.9549 47.2054 66.0014 47.0134 65.9994 46.8188V20.2794C66.006 20.0796 65.9617 19.8816 65.8706 19.7039C65.7795 19.5263 65.6448 19.3751 65.4791 19.2646ZM36.3462 2.58381L62.5596 20.1232L54.0185 25.8292L28.2244 8.0322L36.3462 2.58381ZM29.3581 42.3929C29.2936 42.3853 29.2284 42.3853 29.1639 42.3929L3.10585 24.8847L16.7716 15.7052L42.589 33.5022L29.3581 42.3929ZM26.128 9.45284L51.9454 27.2499L44.6699 32.1284L18.8603 14.308L26.128 9.45284ZM45.8113 34.1579L52.7995 29.4745L52.551 40.6367L45.8113 45.0859V34.1579ZM2.32939 27.1952L27.9527 44.3678V68.5889L2.32939 50.7294V27.1952ZM30.2821 68.6357V44.5629L43.4819 35.7191V47.2559C43.4819 47.5664 43.6046 47.8642 43.8231 48.0838C44.0415 48.3034 44.3377 48.4268 44.6466 48.4268C44.8736 48.4282 45.0957 48.3601 45.2833 48.2316L54.3524 42.2524C54.5116 42.1497 54.6431 42.009 54.7352 41.8428C54.8273 41.6767 54.8772 41.4903 54.8804 41.3001L55.1832 27.8821L63.67 22.1918V46.1943L30.2821 68.6357Z" fill="#212121"></path><path d="M24.4042 49.5429C24.6544 49.5431 24.8981 49.4622 25.099 49.3122C25.3 49.1623 25.4475 48.9512 25.5198 48.7104C25.5922 48.4695 25.5854 48.2117 25.5005 47.975C25.4156 47.7383 25.2572 47.5354 25.0486 47.3964L11.5848 38.3808C11.3274 38.2079 11.0122 38.1449 10.7086 38.2057C10.405 38.2664 10.1378 38.4459 9.96584 38.7047C9.79389 38.9635 9.73124 39.2803 9.79167 39.5856C9.8521 39.8908 10.0307 40.1593 10.2881 40.3322L23.7597 49.3634C23.9528 49.4845 24.1766 49.5468 24.4042 49.5429Z" fill="#212121"></path><path d="M25.0488 54.3435L17.3385 49.1839C17.212 49.0856 17.0668 49.0145 16.9119 48.9751C16.7569 48.9357 16.5956 48.9287 16.4378 48.9547C16.2801 48.9806 16.1294 49.039 15.995 49.126C15.8607 49.2131 15.7456 49.327 15.6569 49.4607C15.5683 49.5944 15.5079 49.745 15.4797 49.9031C15.4514 50.0613 15.4558 50.2236 15.4927 50.3799C15.5295 50.5363 15.5979 50.6833 15.6938 50.812C15.7896 50.9406 15.9107 51.048 16.0496 51.1275L23.7598 56.2949C23.8873 56.38 24.0302 56.4391 24.1803 56.4687C24.3305 56.4983 24.4849 56.4978 24.6349 56.4674C24.7849 56.437 24.9275 56.3771 25.0544 56.2912C25.1814 56.2054 25.2903 56.0952 25.3749 55.9671C25.4596 55.839 25.5183 55.6953 25.5477 55.5444C25.5772 55.3934 25.5767 55.2381 25.5465 55.0873C25.5162 54.9366 25.4566 54.7933 25.3712 54.6656C25.2858 54.538 25.1763 54.4285 25.0488 54.3435Z" fill="#212121"></path></svg>