<svg xmlns="http://www.w3.org/2000/svg" width="64" height="59" viewBox="0 0 64 59" fill="none"><path d="M55.8015 8.20008C50.5145 2.91214 43.4851 0 36.0082 0H0.93753C0.493404 0 0.110279 0.31168 0.0197786 0.746508C-0.0707215 1.18134 0.156029 1.62004 0.56328 1.79744L4.00816 3.29784V9.41705L3.33453 9.10612C2.91341 8.91184 2.41378 9.05449 2.15878 9.44156C1.90366 9.82875 1.96991 10.3442 2.31453 10.6544L4.00816 12.1789V16.4571C4.00816 18.9271 4.66591 21.3605 5.91029 23.4942L10.279 30.9848L6.67004 32.1127C6.32054 32.222 6.06654 32.5248 6.01979 32.8881C5.97304 33.2514 6.14216 33.6086 6.45279 33.8028L6.95479 34.1166C9.40079 35.6456 12.2104 36.609 15.0799 36.9026C15.7148 36.9676 16.3533 36.9998 16.9922 36.9997C17.0792 36.9997 17.1663 36.998 17.2533 36.9968C17.2586 37.0007 17.2633 37.0052 17.2687 37.0091L42.0846 54.7379V57.0602C42.0846 58.1298 42.9546 59 44.0241 59H48.0322C49.1017 59 49.9717 58.1298 49.9717 57.0602V51.047C49.9717 50.3173 49.5665 49.6811 48.9697 49.3499V28.9345H63.0625C63.5803 28.9345 64 28.5147 64 27.9969C64.0001 20.5187 61.0884 13.488 55.8015 8.20008ZM5.88304 4.11448L9.58842 5.72839C10.0632 5.93531 10.6155 5.71789 10.8223 5.24306C11.029 4.76822 10.8118 4.21575 10.337 4.00896L5.43841 1.87533H36.0082C49.923 1.87533 61.3296 12.8159 62.084 26.548L14.0916 5.64425C13.6167 5.43722 13.0644 5.65476 12.8577 6.12959C12.6509 6.60443 12.8682 7.1569 13.3429 7.36369L58.5619 27.0592H42.2261L5.88304 10.2826V4.11448ZM7.52979 22.5494C6.45241 20.7022 5.88304 18.5956 5.88304 16.4572V13.8668L21.1316 27.5929L12.1149 30.411L7.52979 22.5494ZM9.26192 33.2675L23.2616 28.8919C23.5831 28.7914 23.8261 28.5261 23.8978 28.1969C23.9697 27.8677 23.8594 27.5253 23.6091 27.2999L8.17304 13.4051L39.5773 27.902L22.9496 34.0614C18.4899 35.7134 13.4784 35.4029 9.26192 33.2675ZM20.1192 36.7412C21.0477 36.5874 21.9646 36.3657 22.8589 36.0765L42.3802 50.0229C42.1941 50.3206 42.0847 50.671 42.0847 51.0473V52.4336L20.1192 36.7412ZM48.0969 57.0605C48.0969 57.0962 48.068 57.125 48.0324 57.125H44.0242C43.9886 57.125 43.9597 57.0962 43.9597 57.0605V51.0473C43.9597 51.0118 43.9886 50.9829 44.0241 50.9828H44.0245H48.0251C48.0276 50.9828 48.03 50.9832 48.0324 50.9832H48.0339C48.0687 50.984 48.0969 51.0123 48.0969 51.0475V57.0605ZM47.0949 49.1075H44.3247L25.0002 35.3017L42.1882 28.9346H43.0867V45.0344C43.0867 45.5522 43.5065 45.9721 44.0242 45.9721C44.542 45.9721 44.9617 45.5522 44.9617 45.0344V28.9345H47.0949V49.1075Z" fill="#FF6600"></path></svg>