<?xml version="1.0" standalone="no"?>
<!DOCTYPE svg PUBLIC "-//W3C//DTD SVG 1.1//EN" "http://www.w3.org/Graphics/SVG/1.1/DTD/svg11.dtd" >
<svg xmlns="http://www.w3.org/2000/svg" xmlns:xlink="http://www.w3.org/1999/xlink" version="1.1">
<metadata>
Created by FontForge 20170731 at Thu Dec 16 06:44:16 2021
 By Aleksey,,,
Copyright (c) 2021 by Blythe Green
</metadata>
<defs>
<font id="GoldieSans-Bold" horiz-adv-x="0" >
  <font-face 
    font-family="GoldieSans-Bold"
    font-weight="700"
    font-stretch="normal"
    units-per-em="2048"
    panose-1="1 0 0 0 0 0 0 0 0 0"
    ascent="1638"
    descent="-410"
    x-height="1362"
    cap-height="1638"
    bbox="-119 -111 2607 2064"
    underline-thickness="102"
    underline-position="-358"
    unicode-range="U+0020-E007"
  />
<missing-glyph horiz-adv-x="552" 
 />
    <glyph glyph-name="uniE005" unicode="ft" horiz-adv-x="1335" 
d="M412 1141v-836h-244l2 836h-150v227h150v115q6 132 128.5 209t326.5 77v-206q-95 -3 -152.5 -35.5t-60.5 -85.5v-74h426v356h243v-356h213v-227h-213v-584q3 -32 49.5 -53.5t122.5 -24.5v-213q-185 0 -296.5 63t-116.5 169l-2 643h-426z" />
    <glyph glyph-name="uniE006" unicode="tf" horiz-adv-x="1335" 
d="M436 1141v-584q3 -32 49.5 -53.5t122.5 -24.5v-213q-185 0 -296.5 63t-116.5 169l-2 643h-173v227h173v356h243v-356h424v115q6 132 128.5 209t326.5 77v-206q-95 -3 -152.5 -35.5t-60.5 -85.5v-74h196v-227h-196v-836h-244l2 836h-424z" />
    <glyph glyph-name=".notdef" horiz-adv-x="552" 
 />
    <glyph glyph-name=".null" 
 />
    <glyph glyph-name="nonmarkingreturn" horiz-adv-x="682" 
 />
    <glyph glyph-name="space" unicode=" " horiz-adv-x="552" 
 />
    <glyph glyph-name="space" unicode="&#xa0;" horiz-adv-x="552" 
 />
    <glyph glyph-name="exclam" unicode="!" horiz-adv-x="565" 
d="M164 680l-10 958h256l-7 -958h-239zM162 309v244h244v-244h-244z" />
    <glyph glyph-name="quotedbl" unicode="&#x22;" horiz-adv-x="935" 
d="M154 1178v546h260v-546h-260zM522 1178v546h260v-546h-260z" />
    <glyph glyph-name="numbersign" unicode="#" horiz-adv-x="1470" 
d="M221 256l72 264h-266l67 248h264l56 203h-267l68 248h264l72 266h248l-72 -266h203l71 266h248l-71 -266h266l-68 -248h-264l-55 -203h266l-68 -248h-264l-71 -264h-248l71 264h-202l-72 -264h-248zM606 768h203l55 203h-202z" />
    <glyph glyph-name="dollar" unicode="$" horiz-adv-x="1607" 
d="M674 -47v280q-271 23 -428.5 147t-163.5 320h272q12 -85 97 -141.5t223 -75.5v351q-535 123 -535 395q0 159 142 260.5t393 126.5v280h256v-280q234 -22 372.5 -130t145.5 -278h-264q-9 60 -76.5 102.5t-175.5 57.5v-344q316 -64 455 -149.5t139 -225.5q0 -173 -158 -283
t-434 -133v-280h-260zM412 1229q0 -33 65.5 -71t196.5 -75v287q-123 -13 -192.5 -50.5t-69.5 -90.5zM932 782v-301q152 12 236.5 54t84.5 106q0 74 -321 141z" />
    <glyph glyph-name="percent" unicode="%" horiz-adv-x="1501" 
d="M291 160l667 1480h242l-668 -1480h-241zM154 1288q0 88 60 148.5t146 60.5q88 0 148.5 -60.5t60.5 -148.5q0 -86 -60.5 -146.5t-148.5 -60.5q-86 0 -146 60.5t-60 146.5zM932 510q0 88 60.5 148.5t146.5 60.5q88 0 148.5 -60.5t60.5 -148.5q0 -86 -60.5 -146.5
t-148.5 -60.5q-86 0 -146.5 60.5t-60.5 146.5z" />
    <glyph glyph-name="ampersand" unicode="&#x26;" horiz-adv-x="1406" 
d="M659 272q-297 0 -451 122t-120 331q13 89 80.5 176t167.5 146q-26 29 -63.5 66.5t-54.5 56.5t-36.5 49t-27 63.5t-7.5 79.5q0 53 32.5 106t89 96t143 70t186.5 27q110 0 214.5 -38t172.5 -103q88 -82 94.5 -175t-69.5 -171q-45 -48 -283 -183l256 -233q15 61 31 178h229
q0 -157 -67 -342l149 -131l-180 -158l-109 96q-69 -60 -170.5 -94.5t-206.5 -34.5zM360 702q-6 -66 38.5 -115.5t127.5 -68.5q77 -15 155.5 4t133.5 68l-301 266q-67 -35 -109 -77t-45 -77zM414 1327q0 -25 37 -70.5t100 -97.5q115 49 182.5 94.5t67.5 73.5q0 40 -40 66
t-96.5 31.5t-113.5 -1t-97 -33t-40 -63.5z" />
    <glyph glyph-name="quotesingle" unicode="'" horiz-adv-x="415" 
d="M78 1178v546h260v-546h-260z" />
    <glyph glyph-name="parenleft" unicode="(" horiz-adv-x="647" 
d="M446 -84q-167 89 -265.5 343.5t-98.5 598.5t98.5 597.5t265.5 342.5l119 -184q-110 -98 -174.5 -302t-64.5 -454q0 -249 64.5 -453.5t174.5 -304.5z" />
    <glyph glyph-name="parenright" unicode=")" horiz-adv-x="647" 
d="M82 100q110 100 175 304.5t65 453.5q0 250 -65 454t-175 302l119 184q167 -89 265.5 -342.5t98.5 -597.5t-98.5 -598.5t-265.5 -343.5z" />
    <glyph glyph-name="asterisk" unicode="*" horiz-adv-x="833" 
d="M279 1122q2 49 10 162l-68 -45l-69 -49l-95 164q45 19 109 53l33 16l-39 19q-12 6 -47 23t-56 28l95 164l71 -49l62 -43l-6 75q-2 15 -3.5 31t-2.5 25t-2 17.5t-1 9.5v1h189q-1 -34 -4 -88t-4 -69l59 41l70 49l94 -164l-109 -53q-5 -3 -16.5 -8.5t-16.5 -8.5l39 -18
q12 -6 47 -23t56 -28l-94 -164l-72 49l-62 43l7 -76q1 -14 4 -38l4 -46h-182z" />
    <glyph glyph-name="plus" unicode="+" horiz-adv-x="1413" 
d="M154 868v248h430v430h247v-430h429v-248h-429v-428h-247v428h-430z" />
    <glyph glyph-name="comma" unicode="," horiz-adv-x="567" 
d="M154 117q63 3 94.5 52t23.5 132h-118v260h260v-303q0 -120 -72 -192t-188 -72v123z" />
    <glyph glyph-name="hyphen" unicode="-" horiz-adv-x="894" 
d="M154 745v248h587v-248h-587z" />
    <glyph glyph-name="period" unicode="." horiz-adv-x="362" 
d="M51 301v260h260v-260h-260z" />
    <glyph glyph-name="slash" unicode="/" horiz-adv-x="991" 
d="M27 158l655 1480h283l-664 -1480h-274z" />
    <glyph glyph-name="zero" unicode="0" horiz-adv-x="1484" 
d="M743 272q-305 0 -483 191t-178 518q0 326 178.5 516.5t482.5 190.5t482 -190.5t178 -514.5q0 -327 -178 -519t-482 -192zM354 983q0 -214 104.5 -338.5t284.5 -124.5q179 0 283 124.5t104 338.5q0 211 -104.5 334t-282.5 123q-180 0 -284.5 -123t-104.5 -334z" />
    <glyph glyph-name="one" unicode="1" horiz-adv-x="565" 
d="M160 307l-6 1331h256l2 -1331h-252z" />
    <glyph glyph-name="two" unicode="2" horiz-adv-x="1286" 
d="M78 465q8 187 172 351.5t438 258.5q78 27 130.5 65t73 77.5t17 78.5t-31 69.5t-79 49.5t-118.5 19q-123 0 -202 -44.5t-91 -119.5h-272q9 192 161 303t404 110q229 -2 363.5 -113t134.5 -300q0 -126 -105.5 -239t-322.5 -189q-160 -57 -267.5 -137t-130.5 -152h856
l-51 -246h-1079v158z" />
    <glyph glyph-name="three" unicode="3" horiz-adv-x="1267" 
d="M633 274q-247 13 -396 138t-155 323h272q13 -92 89 -149.5t190 -63.5q129 0 204.5 49t75.5 134t-74.5 133.5t-203.5 48.5v237q80 0 136 42t71 112q15 69 -38 110.5t-157 41.5h-8q-86 0 -143.5 -44.5t-69.5 -119.5h-272q9 192 142 303.5t351 109.5q235 -2 361 -110.5
t106 -292.5q-9 -80 -57 -148.5t-121 -105.5q115 -32 182.5 -118t67.5 -202q0 -197 -149 -312.5t-404 -115.5z" />
    <glyph glyph-name="four" unicode="4" horiz-adv-x="1413" 
d="M846 307v469h-768l180 862h256l-129 -616h459v616h256v-616h235l-51 -246h-182v-469h-256z" />
    <glyph glyph-name="five" unicode="5" horiz-adv-x="1335" 
d="M690 272q-264 0 -428.5 116t-179.5 314h272q0 -85 90 -133.5t246 -48.5q134 0 212.5 60t78.5 163q0 109 -78 173.5t-211 64.5t-213 -26.5t-98 -73.5h-256l156 757h950l-51 -247h-695l-45 -226q125 64 293 64q239 0 379.5 -132t140.5 -356q0 -217 -151.5 -343t-411.5 -126
z" />
    <glyph glyph-name="six" unicode="6" horiz-adv-x="1316" 
d="M662 274q-127 0 -237.5 41.5t-172.5 112.5q-78 82 -124 231t-46 322q0 325 157.5 516t424.5 191q215 0 358 -98t174 -265h-272q-10 60 -75 94.5t-165 34.5q-145 0 -238 -102t-108 -277q63 57 164.5 90t214.5 33q260 0 398.5 -131.5t115.5 -355.5q-19 -201 -172 -319
t-397 -118zM389 737q0 -106 78 -160.5t217 -54.5q143 0 223 54.5t80 160.5q0 104 -76 157.5t-213 55.5q-146 -2 -227.5 -55.5t-81.5 -157.5z" />
    <glyph glyph-name="seven" unicode="7" horiz-adv-x="1040" 
d="M436 307l217 1086h-626l51 245h880l-266 -1331h-256z" />
    <glyph glyph-name="eight" unicode="8" horiz-adv-x="1363" 
d="M682 272q-277 0 -438.5 113t-161.5 307q0 128 66 224.5t190 150.5q-152 85 -152 238q0 173 133.5 274.5t362.5 101.5t362.5 -101.5t133.5 -274.5q0 -76 -36.5 -137t-103.5 -101q118 -54 181 -144.5t63 -209.5q0 -203 -162 -322t-438 -119zM354 713q0 -91 88.5 -145.5
t239.5 -57.5q151 2 239.5 56.5t88.5 146.5t-88.5 146t-239.5 56q-151 -2 -239.5 -56t-88.5 -146zM453 1305q0 -69 62 -110.5t167 -41.5t167 41.5t62 110.5q0 58 -61.5 92.5t-167.5 36.5q-106 -2 -167.5 -36.5t-61.5 -92.5z" />
    <glyph glyph-name="nine" unicode="9" horiz-adv-x="1316" 
d="M653 274q-215 0 -358 98t-174 265h272q10 -60 75 -94.5t165 -34.5q143 0 237 111t109 288q-111 -102 -379 -102q-260 0 -398.5 126t-115.5 341q17 192 170 304t399 112q127 0 237.5 -41.5t172.5 -112.5q78 -82 124 -231t46 -322q0 -325 -157.5 -516t-424.5 -191z
M330 1245q0 -97 77.5 -154.5t210.5 -58.5q143 2 226.5 59t83.5 154q0 99 -80 157t-215 58q-140 0 -221.5 -57.5t-81.5 -157.5z" />
    <glyph glyph-name="colon" unicode=":" horiz-adv-x="567" 
d="M154 301v260h260v-260h-260zM154 1104v260h260v-260h-260z" />
    <glyph glyph-name="semicolon" unicode=";" horiz-adv-x="567" 
d="M154 117q63 3 94.5 52t23.5 132h-118v260h260v-303q0 -120 -72 -192t-188 -72v123zM154 1104v260h260v-260h-260z" />
    <glyph glyph-name="less" unicode="&#x3c;" horiz-adv-x="985" 
d="M831 319l-675 396l-2 266l677 395v-270l-446 -258l446 -258v-271z" />
    <glyph glyph-name="equal" unicode="=" horiz-adv-x="1413" 
d="M154 602v248h1106v-248h-1106zM154 1135v247h1106v-247h-1106z" />
    <glyph glyph-name="greater" unicode="&#x3e;" horiz-adv-x="985" 
d="M154 319v271l446 258l-446 258v270l677 -395l-2 -266z" />
    <glyph glyph-name="question" unicode="?" horiz-adv-x="1200" 
d="M461 680q0 70 21 128t55 98.5t75 75.5t82.5 66t75.5 63t55 74t21 91q0 75 -67.5 119.5t-182.5 44.5q-104 0 -171.5 -40t-76.5 -108h-266q3 184 144.5 291t379.5 105q236 -2 374 -108.5t138 -287.5q0 -75 -22 -138.5t-57.5 -107t-78.5 -80.5t-85.5 -68.5t-78 -63
t-57.5 -70.5t-22 -84h-256zM463 299v256h254v-256h-254z" />
    <glyph glyph-name="at" unicode="@" horiz-adv-x="1718" 
d="M948 293q-231 -39 -405 -8t-285 118.5t-153 235.5t-9 342q57 326 296 516.5t591 190.5q351 0 523.5 -190.5t115.5 -514.5q-35 -189 -142.5 -297.5t-256.5 -105.5q-69 2 -124.5 31.5t-80.5 78.5q-31 -37 -100.5 -58.5t-159.5 -21.5q-161 0 -240 91.5t-53 248.5
q29 156 139.5 247t269.5 91q109 0 177 -43l8 47h192l-75 -424q-9 -49 12 -77.5t65 -28.5q51 0 92 60t58 161q41 233 -81.5 369.5t-373.5 136.5t-421.5 -136.5t-211.5 -369.5q-51 -284 111.5 -419t488.5 -79zM682 950q-10 -66 23.5 -104.5t101.5 -38.5q72 0 119.5 38.5
t58.5 104.5q11 65 -24 103.5t-105 38.5q-69 0 -116 -38.5t-58 -103.5z" />
    <glyph glyph-name="A" unicode="A" horiz-adv-x="1640" 
d="M27 307l635 1331h317l635 -1331h-303l-113 246h-756l-112 -246h-303zM557 801h526l-264 573z" />
    <glyph glyph-name="B" unicode="B" horiz-adv-x="1540" 
d="M156 307l-2 1331h741q214 0 339.5 -103t125.5 -280q0 -87 -36.5 -148t-102.5 -87q114 -33 177.5 -109.5t63.5 -193.5q0 -183 -143 -292.5t-391 -117.5h-772zM410 1130h487q88 0 139 34t51 93q0 60 -51.5 96.5t-140.5 37.5h-485v-261zM412 555h483q135 0 215 44.5
t80 119.5q0 76 -79 120t-214 44h-485v-328z" />
    <glyph glyph-name="C" unicode="C" horiz-adv-x="1562" 
d="M784 272q-324 0 -513 192t-189 519q0 326 189 516.5t513 190.5q278 0 467.5 -114.5t233.5 -309.5h-273q-19 80 -134.5 128t-293.5 48q-198 0 -314 -123.5t-116 -333.5q0 -214 116 -339.5t314 -125.5q178 0 293.5 48t134.5 130h273q-43 -196 -232 -311t-469 -115z" />
    <glyph glyph-name="D" unicode="D" horiz-adv-x="1544" 
d="M154 307v1331h553q348 0 551.5 -180t203.5 -489q0 -305 -203.5 -483.5t-551.5 -178.5h-553zM410 553h297q223 0 353 113t130 305q0 193 -130.5 306.5t-352.5 113.5h-297v-838z" />
    <glyph glyph-name="E" unicode="E" horiz-adv-x="1570" 
d="M154 307v1331h1263v-247h-1007v-275h897v-248h-897v-313l1007 -2v-246h-1263z" />
    <glyph glyph-name="F" unicode="F" horiz-adv-x="1492" 
d="M154 307v1331h1261v-247h-1005v-312h897v-248h-897v-524h-256z" />
    <glyph glyph-name="G" unicode="G" horiz-adv-x="1703" 
d="M872 233q-364 0 -577 202t-213 548q0 344 213 546t577 202q252 0 428 -124.5t226 -336.5h-273q-22 100 -124.5 158.5t-256.5 58.5q-238 0 -378 -135.5t-140 -366.5q0 -233 140 -370.5t378 -137.5q127 0 252.5 34.5t194.5 82.5l-2 199h-465v247h719l2 -581
q-133 -110 -311.5 -168t-389.5 -58z" />
    <glyph glyph-name="H" unicode="H" horiz-adv-x="1730" 
d="M156 307l-2 1331h256v-522h909v522h256l2 -1331h-256v561h-909v-561h-256z" />
    <glyph glyph-name="I" unicode="I" horiz-adv-x="567" 
d="M154 307v1331h256l4 -1331h-260z" />
    <glyph glyph-name="J" unicode="J" horiz-adv-x="1204" 
d="M604 244q-263 0 -418.5 148t-158.5 401h258q3 -138 89 -219.5t230 -81.5q121 0 194.5 81.5t78.5 219.5l-3 845h246l2 -845q-3 -254 -142.5 -401.5t-375.5 -147.5z" />
    <glyph glyph-name="K" unicode="K" horiz-adv-x="1515" 
d="M158 307l-4 1331h256l2 -610l671 610h369l-598 -522l635 -809h-318l-497 649l-262 -229l2 -420h-256z" />
    <glyph glyph-name="L" unicode="L" horiz-adv-x="1320" 
d="M154 307v1331h256v-1083h884v-248h-1140z" />
    <glyph glyph-name="M" unicode="M" horiz-adv-x="1855" 
d="M135 307l-4 1331h301l483 -1085l482 1085h301l4 -1331h-256l-2 823l-381 -823h-301l-373 809l2 -809h-256z" />
    <glyph glyph-name="N" unicode="N" horiz-adv-x="1617" 
d="M135 307l-4 1331h322l778 -1017l-4 1017h256l4 -1331h-322l-778 1018l4 -1018h-256z" />
    <glyph glyph-name="O" unicode="O" horiz-adv-x="1689" 
d="M846 272q-352 0 -558 191t-206 518q0 326 206 516.5t558 190.5q351 0 556.5 -190.5t205.5 -514.5q0 -327 -205.5 -519t-556.5 -192zM354 983q0 -213 133 -338t359 -125t357.5 124.5t131.5 338.5q0 211 -131.5 334t-357.5 123t-359 -123.5t-133 -333.5z" />
    <glyph glyph-name="P" unicode="P" horiz-adv-x="1482" 
d="M156 307l-2 1331h784q213 0 338 -122.5t125 -331.5t-124.5 -331t-338.5 -122h-526v-424h-256zM410 979h528q88 0 139 55.5t51 149.5q0 95 -51.5 151t-140.5 56h-526v-412z" />
    <glyph glyph-name="Q" unicode="Q" horiz-adv-x="1689" 
d="M1118 307q-125 -35 -272 -35q-352 0 -558 191t-206 518q0 326 206 516.5t558 190.5q351 0 556.5 -190.5t205.5 -514.5q0 -187 -70.5 -333.5t-202.5 -239.5l144 -281h-281zM354 983q0 -213 133 -338t359 -125q90 0 166 21l-84 186h246l38 -74q123 126 123 330
q0 211 -131.5 334t-357.5 123t-359 -123.5t-133 -333.5z" />
    <glyph glyph-name="R" unicode="R" horiz-adv-x="1480" 
d="M156 307l-2 1331h784q214 0 338.5 -122.5t124.5 -331.5q0 -154 -69 -262t-195 -156l317 -459h-317l-299 424h-426v-424h-256zM410 979h528q88 0 139 56t51 151q0 94 -51 149.5t-139 55.5h-528v-412z" />
    <glyph glyph-name="S" unicode="S" horiz-adv-x="1607" 
d="M803 283q-326 -2 -520.5 125.5t-200.5 347.5h272q15 -104 136.5 -165t312.5 -61q207 0 328.5 45t121.5 121q0 15 -10.5 28.5t-32.5 26t-45.5 23t-61 21.5t-66 18.5t-74.5 17.5t-72 15t-72 14t-63 12q-617 119 -617 412q0 180 180.5 285.5t489.5 107.5q286 1 458 -110
t181 -303h-264q-12 75 -115.5 121.5t-259.5 46.5q-182 0 -289.5 -40.5t-107.5 -107.5q0 -44 116 -96t346 -96q350 -68 501 -154.5t151 -232.5q0 -193 -195 -306.5t-528 -115.5z" />
    <glyph glyph-name="T" unicode="T" horiz-adv-x="1599" 
d="M674 307l-2 1084h-645v247h1546v-247h-645l2 -1084h-256z" />
    <glyph glyph-name="U" unicode="U" horiz-adv-x="1671" 
d="M850 244q-317 0 -504 154.5t-190 418.5l-2 821h262l-2 -821q3 -151 120.5 -238t315.5 -87q201 0 321 87.5t123 237.5l-2 821h246l2 -821q-3 -264 -189 -418.5t-501 -154.5z" />
    <glyph glyph-name="V" unicode="V" horiz-adv-x="1605" 
d="M641 307l-614 1331h303l473 -1065l473 1065h303l-614 -1331h-324z" />
    <glyph glyph-name="W" unicode="W" horiz-adv-x="2056" 
d="M436 307l-409 1331h282l291 -1052l305 1052h246l305 -1052l291 1052h283l-410 -1331h-322l-270 926l-270 -926h-322z" />
    <glyph glyph-name="X" unicode="X" horiz-adv-x="1394" 
d="M27 307l508 674l-486 657h338l309 -419l293 419h338l-475 -630l516 -701h-338l-342 465l-323 -465h-338z" />
    <glyph glyph-name="Y" unicode="Y" horiz-adv-x="1546" 
d="M643 307v516l-616 815h313l438 -583l428 583h314l-609 -815v-516h-268z" />
    <glyph glyph-name="Z" unicode="Z" horiz-adv-x="1404" 
d="M78 307v225l856 859h-852v247h1241v-227l-854 -856l858 -2v-246h-1249z" />
    <glyph glyph-name="bracketleft" unicode="[" horiz-adv-x="866" 
d="M154 -111v1946h634v-248h-378v-1450h378v-248h-634z" />
    <glyph glyph-name="backslash" unicode="\" horiz-adv-x="991" 
d="M965 158h-275l-663 1480h282z" />
    <glyph glyph-name="bracketright" unicode="]" horiz-adv-x="942" 
d="M788 -111h-634v248h378v1450h-378v248h634v-1946z" />
    <glyph glyph-name="asciicircum" unicode="^" horiz-adv-x="997" 
d="M154 1247l208 479h293l189 -479h-256l-82 213l-84 -213h-268z" />
    <glyph glyph-name="underscore" unicode="_" horiz-adv-x="952" 
d="M18 27v247h908v-247h-908z" />
    <glyph glyph-name="grave" unicode="`" horiz-adv-x="788" 
d="M412 1446l-258 278h284l197 -278h-223z" />
    <glyph glyph-name="a" unicode="a" horiz-adv-x="1284" 
d="M563 272q-231 0 -366.5 95t-135.5 256q0 142 152 236.5t412 113.5q54 3 166.5 15t158.5 16v24q0 63 -86.5 99t-236.5 36q-143 0 -231 -36t-95 -99h-231q3 169 153 267t404 96q255 -2 405 -99.5t150 -263.5v-721h-209l-10 94q-157 -129 -400 -129zM305 623
q0 -68 70.5 -107t191.5 -39q142 0 245 41t151 115q0 133 -2 180q-207 -27 -394 -45q-121 -12 -191.5 -51.5t-70.5 -93.5z" />
    <glyph glyph-name="b" unicode="b" horiz-adv-x="1349" 
d="M702 272q-222 0 -383 154l-12 -117l-213 -2v1417h244v-467q154 134 377 134q264 0 418.5 -150t154.5 -407q0 -258 -158 -410t-428 -152zM324 834q0 -154 104.5 -244t284.5 -90q153 0 242 90t89 244q0 152 -94.5 240.5t-257.5 88.5q-170 0 -269 -88.5t-99 -240.5z" />
    <glyph glyph-name="c" unicode="c" horiz-adv-x="1251" 
d="M633 274q-263 2 -417.5 154t-154.5 408q0 254 155 404t419 151q252 2 402 -96t153 -267h-232q-7 63 -94 99t-229 36q-152 0 -241 -88t-89 -239q0 -154 89 -244t241 -90q130 0 217 35.5t106 95.5h232q-3 -167 -153 -264t-404 -95z" />
    <glyph glyph-name="d" unicode="d" horiz-adv-x="1261" 
d="M553 272q-244 0 -383 151t-139 411q0 257 160 407t434 150q204 0 336 -117v450h243v-1417h-243v123q-165 -158 -408 -158zM274 834q0 -154 89 -244t243 -90q170 0 269.5 90t99.5 244q0 152 -94 240.5t-254 88.5q-163 0 -258 -88.5t-95 -240.5z" />
    <glyph glyph-name="e" unicode="e" horiz-adv-x="1292" 
d="M645 274q-263 5 -417 153.5t-154 397.5q0 261 156 413.5t423 152.5q243 0 398 -125.5t178 -339.5q10 -156 8 -178h-911q23 -116 113 -181t229 -65q135 0 222 35.5t101 95.5h232q0 -170 -156 -267t-422 -92zM338 954h666q-23 97 -116 153t-235 56q-119 0 -200.5 -55
t-114.5 -154z" />
    <glyph glyph-name="f" unicode="f" horiz-adv-x="645" 
d="M168 305l2 836h-150v227h150v115q6 132 128.5 209t326.5 77v-206q-95 -3 -152.5 -35.5t-60.5 -85.5v-74h196v-227h-196v-836h-244z" />
    <glyph glyph-name="g" unicode="g" horiz-adv-x="1380" 
d="M690 -104q-264 0 -424.5 96.5t-169.5 261.5h244q4 -64 98.5 -101.5t251.5 -37.5q153 0 245.5 36t98.5 99v172q-144 -129 -377 -129q-267 0 -424 151.5t-157 409.5q0 256 157 406.5t424 150.5q234 0 381 -131l13 82h227v-1112q-10 -164 -169 -259t-419 -95zM328 854
q0 -154 94.5 -244t257.5 -90q169 0 269 90t100 244q0 152 -100 241t-269 89q-163 0 -257.5 -89t-94.5 -241z" />
    <glyph glyph-name="h" unicode="h" horiz-adv-x="1357" 
d="M125 307v1417h244v-528q150 195 434 195q209 0 330.5 -150t121.5 -407v-527h-233v527q0 152 -74 240.5t-200 88.5q-175 0 -277 -111t-102 -300v-445h-244z" />
    <glyph glyph-name="i" unicode="i" horiz-adv-x="485" 
d="M127 307v1055h244v-1055h-244zM125 1477v247h248v-247h-248z" />
    <glyph glyph-name="j" unicode="j" horiz-adv-x="645" 
d="M-55 104q38 2 64.5 4.5t64.5 8.5t64.5 17.5t52 28t39.5 43t16 60.5v1096h243v-1096q-4 -107 -43.5 -180.5t-113.5 -114t-166.5 -57t-220.5 -16.5v206zM244 1479v247h248v-247h-248z" />
    <glyph glyph-name="k" unicode="k" horiz-adv-x="1210" 
d="M117 307l-4 1417h239l2 -821l455 459h285l-387 -401l483 -654h-285l-354 492l-195 -203v-289h-239z" />
    <glyph glyph-name="l" unicode="l" horiz-adv-x="471" 
d="M125 307v1417h244v-1417h-244z" />
    <glyph glyph-name="m" unicode="m" horiz-adv-x="2160" 
d="M113 307v1055h243v-154q144 183 412 183q125 0 221.5 -55.5t153.5 -159.5q77 104 197.5 159.5t271.5 55.5q202 0 324 -140t122 -377v-567h-243v567q0 133 -63.5 211t-172.5 78q-172 0 -269.5 -83.5t-97.5 -227.5v-545h-243v567q0 137 -69 214.5t-187 74.5
q-164 -6 -260.5 -117t-96.5 -294v-445h-243z" />
    <glyph glyph-name="n" unicode="n" horiz-adv-x="1382" 
d="M113 307v1055h243v-154q163 183 459 183q214 0 339.5 -150.5t125.5 -406.5v-527h-233v527q0 152 -77.5 240.5t-209.5 88.5q-186 0 -295 -111t-109 -300v-445h-243z" />
    <glyph glyph-name="o" unicode="o" horiz-adv-x="1327" 
d="M662 272q-277 0 -439 150.5t-162 408.5t157.5 409t424.5 151h39q293 0 449.5 -169t130.5 -456q-22 -227 -183.5 -360.5t-416.5 -133.5zM305 831q0 -150 98 -239.5t259 -91.5q162 2 260 91t98 240q0 150 -97.5 240t-258.5 92q-162 -2 -260.5 -91.5t-98.5 -240.5z" />
    <glyph glyph-name="p" unicode="p" horiz-adv-x="1368" 
d="M113 -76v1440l213 -2l14 -131q153 160 393 160q264 0 419 -150.5t155 -406.5q0 -258 -158 -410t-428 -152q-210 0 -365 138v-486h-243zM342 834q0 -154 104.5 -244t284.5 -90q154 0 243 90t89 244q0 152 -94.5 240.5t-257.5 88.5q-170 0 -269.5 -88.5t-99.5 -240.5z" />
    <glyph glyph-name="q" unicode="q" horiz-adv-x="1355" 
d="M999 418q-156 -146 -376 -146q-258 0 -410 152t-152 410q0 255 156.5 406t415.5 151q216 0 366 -150v121h244v-1438h-244v494zM313 834q0 -154 89 -244t243 -90q170 0 269.5 90t99.5 244q0 152 -94 240.5t-254 88.5q-163 0 -258 -88.5t-95 -240.5z" />
    <glyph glyph-name="r" unicode="r" horiz-adv-x="841" 
d="M51 307v1055h246v-125q96 81 230 123t284 29v-215q-236 26 -375 -81.5t-139 -314.5v-471h-246z" />
    <glyph glyph-name="s" unicode="s" horiz-adv-x="1224" 
d="M594 276q-246 -1 -391 95t-148 262h232q7 -60 90 -94.5t217 -34.5q147 0 232 34.5t85 94.5q0 23 -118.5 68.5t-323.5 101.5q-203 56 -291 120t-88 160q0 140 142.5 223.5t385.5 84.5q216 1 348.5 -82t141.5 -226h-231q-8 37 -78.5 58.5t-182.5 21.5q-126 0 -200 -21.5
t-74 -58.5q0 -9 10 -17.5t33.5 -18.5t49 -19t70 -22t82.5 -23.5t100 -27.5t110 -31q186 -54 276 -119.5t90 -171.5q0 -163 -153.5 -259.5t-415.5 -97.5z" />
    <glyph glyph-name="t" unicode="t" horiz-adv-x="690" 
d="M608 266q-185 0 -296.5 63t-116.5 169l-2 643h-173v227h173v356h243v-356h213v-227h-213v-584q3 -32 49.5 -53.5t122.5 -24.5v-213z" />
    <glyph glyph-name="u" unicode="u" horiz-adv-x="1359" 
d="M582 285q-226 0 -366 151.5t-140 405.5v526h243v-547q0 -142 86 -225.5t232 -83.5q177 0 282 143.5t105 374.5v332h244v-1055h-244v160q-176 -182 -442 -182z" />
    <glyph glyph-name="v" unicode="v" horiz-adv-x="1275" 
d="M489 307l-469 1055h275l348 -797l352 797h260l-473 -1055h-293z" />
    <glyph glyph-name="w" unicode="w" horiz-adv-x="1607" 
d="M332 307l-312 1055h244l205 -772l203 772h264l203 -772l204 772h244l-311 -1055h-275l-196 727l-199 -727h-274z" />
    <glyph glyph-name="x" unicode="x" horiz-adv-x="1220" 
d="M20 307l441 555l-379 500h301l229 -297l226 297h301l-383 -481l444 -574h-317l-281 371l-280 -371h-302z" />
    <glyph glyph-name="y" unicode="y" horiz-adv-x="1255" 
d="M264 104q71 3 130.5 48t90.5 118l17 37l-482 1055h265l340 -776l342 776h268l-520 -1155q-65 -143 -181 -226t-251 -83z" />
    <glyph glyph-name="z" unicode="z" horiz-adv-x="1212" 
d="M74 307v207l20 21h4l662 600h-682v227h1057v-209l-2 -2h2l-680 -616l684 -3v-225h-1065z" />
    <glyph glyph-name="braceleft" unicode="{" horiz-adv-x="827" 
d="M788 -70q-204 0 -324 141t-120 380v157v4q0 59 -51 93t-139 34v248q88 0 139 34t51 93v162q0 239 120 379.5t324 140.5v-237q-40 0 -70.5 -6.5t-51.5 -20.5t-35.5 -29.5t-22.5 -42.5t-12 -50.5t-4 -61.5t0.5 -68t2 -78.5t1.5 -83.5q0 -102 -46.5 -168t-133.5 -86
q87 -22 133.5 -88t46.5 -168q0 -35 -1.5 -83.5t-2 -78t-0.5 -68t4 -62t12 -50t22.5 -42t35.5 -29.5t51.5 -20.5t70.5 -6.5v-238z" />
    <glyph glyph-name="bar" unicode="|" horiz-adv-x="567" 
d="M154 -111v1944h256l4 -1944h-260z" />
    <glyph glyph-name="braceright" unicode="}" horiz-adv-x="942" 
d="M154 168q40 0 70.5 6.5t51.5 20.5t35.5 29.5t22.5 42t12 50t4 62t-0.5 68t-2 78t-1.5 83.5q0 102 46.5 168t133.5 88q-87 20 -133.5 86t-46.5 168q0 35 1.5 83.5t2 78.5t0.5 68t-4 61.5t-12 50.5t-22.5 42.5t-35.5 29.5t-51.5 20.5t-70.5 6.5v237q204 0 324 -140.5
t120 -379.5v-162q0 -59 51 -93t139 -34v-248q-88 0 -139 -34t-51 -93v-4v-157q0 -239 -120 -380t-324 -141v238z" />
    <glyph glyph-name="asciitilde" unicode="~" horiz-adv-x="1386" 
d="M934 725q-74 0 -161 32.5t-159 64.5t-110 32q-55 0 -87 -30t-32 -83h-231q0 179 82 283t223 104q57 0 124.5 -21t117 -45.5t101.5 -45.5t81 -21q55 0 86.5 31t31.5 84h232q0 -177 -80.5 -281t-218.5 -104z" />
    <glyph glyph-name="exclamdown" unicode="&#xa1;" horiz-adv-x="565" 
d="M399 883l11 -959h-256l6 959h239zM158 1010v243h243v-243h-243z" />
    <glyph glyph-name="cent" unicode="&#xa2;" horiz-adv-x="1562" 
d="M252 162l117 223q-138 90 -212.5 243.5t-74.5 354.5q0 326 189 516.5t513 190.5q128 0 254 -29l33 61h283l-84 -157q171 -114 215 -299h-273q-12 48 -57 84l-436 -826q40 -4 65 -4q178 0 293.5 48t134.5 130h273q-43 -196 -232 -311t-469 -115q-98 0 -188 19l-70 -129
h-274zM354 985q0 -235 140 -362l426 811q-55 8 -136 8q-198 0 -314 -123.5t-116 -333.5z" />
    <glyph glyph-name="sterling" unicode="&#xa3;" horiz-adv-x="1228" 
d="M78 307v209l35 37q55 67 90 144.5t41 144.5h-209v248h147l-13 26t-13.5 27.5t-11 24t-10.5 26.5t-7.5 24t-6 26.5t-1.5 25.5q0 189 137.5 300t372.5 113q227 1 365 -110t147 -303h-273q-12 77 -76.5 121.5t-162.5 44.5q-109 0 -173.5 -41t-64.5 -111q0 -13 6 -35
t13 -41.5t21 -56.5t22 -61h415v-248h-360v-23q0 -72 -27.5 -143.5t-74.5 -122.5h751v-246h-1079z" />
    <glyph glyph-name="currency" unicode="&#xa4;" horiz-adv-x="1136" 
d="M260 498l-178 168l108 90q-65 100 -65 237q0 140 65 240l-108 90l178 168l86 -127q92 39 207 39h29q117 0 209 -39l86 127l178 -168l-107 -90q75 -116 60 -289q-8 -102 -64 -186l111 -92l-181 -166l-83 127q-98 -45 -224 -45q-128 0 -221 43zM324 993q0 -104 66 -165.5
t179 -63.5q111 2 177.5 63.5t66.5 165.5q0 102 -66.5 164t-177.5 64q-112 -1 -178.5 -63t-66.5 -165z" />
    <glyph glyph-name="yen" unicode="&#xa5;" horiz-adv-x="1546" 
d="M348 492v247h295v64h-295v248h123l-444 587h313l438 -583l428 583h314l-439 -587h119v-248h-289v-64h289v-247h-289v-185h-268v185h-295z" />
    <glyph glyph-name="section" unicode="&#xa7;" horiz-adv-x="1230" 
d="M621 174q-246 -1 -391 94.5t-148 261.5h231q7 -60 90.5 -94.5t217.5 -34.5q128 0 202 34.5t74 94.5q0 43 -106.5 84.5t-286.5 67.5q-179 26 -283 106.5t-104 192.5q0 66 40 127.5t109 99.5q-69 31 -109 89.5t-40 127.5q0 140 131.5 223.5t355.5 84.5q216 1 348.5 -82
t141.5 -226h-232q-8 37 -78 58.5t-182 21.5q-107 0 -170 -21.5t-63 -58.5q0 -43 111 -85.5t302 -73.5q169 -28 268 -106.5t99 -184.5q0 -63 -31.5 -126t-83.5 -106q53 -28 84 -85.5t31 -127.5q0 -163 -142.5 -258.5t-385.5 -97.5zM369 989q0 -47 71.5 -76t194.5 -32
q121 0 191.5 27.5t70.5 74.5q0 40 -68.5 63t-185.5 23q-126 0 -200 -21.5t-74 -58.5z" />
    <glyph glyph-name="dieresis" unicode="&#xa8;" horiz-adv-x="808" 
d="M590 1458q-57 0 -98 40.5t-41 98.5q0 56 41 96t98 40q56 0 96.5 -40.5t40.5 -95.5q0 -58 -40.5 -98.5t-96.5 -40.5zM82 1597q0 56 41 96t98 40q56 0 96.5 -40.5t40.5 -95.5q0 -58 -40.5 -98.5t-96.5 -40.5q-57 0 -98 40.5t-41 98.5z" />
    <glyph glyph-name="copyright" unicode="&#xa9;" horiz-adv-x="1689" 
d="M846 272q-352 0 -558 191t-206 518q0 326 206 516.5t558 190.5q351 0 556.5 -190.5t205.5 -514.5q0 -327 -205.5 -519t-556.5 -192zM301 983q0 -236 147 -374t398 -138t397 138t146 374q0 233 -146.5 369.5t-396.5 136.5q-251 0 -398 -136.5t-147 -369.5zM461 983
q0 172 104.5 274t284.5 103q180 0 281.5 -74.5t95.5 -200.5h-193q11 40 -38.5 63t-145.5 23q-88 0 -139.5 -50.5t-51.5 -137.5q0 -89 51.5 -142t139.5 -53q89 0 139.5 23t48.5 61h189q6 -126 -96 -198.5t-283 -71.5q-178 1 -282.5 104.5t-104.5 276.5z" />
    <glyph glyph-name="ordfeminine" unicode="&#xaa;" horiz-adv-x="698" 
d="M303 1217q-110 0 -176 47.5t-66 126.5q0 71 72.5 118t194.5 54q31 2 73 8l58 4q-10 41 -127 41q-43 0 -73 -5t-44 -14.5t-10 -21.5h-139q-6 81 66 128.5t200 47.5q117 -1 186.5 -45t77.5 -121v-31v-321h-125l-2 27q-72 -43 -166 -43zM205 1391q0 -23 27 -36.5t73 -13.5
q118 0 160 58v57l-158 -16q-102 -13 -102 -49z" />
    <glyph glyph-name="guillemotleft" unicode="&#xab;" horiz-adv-x="1134" 
d="M338 469l-318 446l318 447h301l-324 -447l324 -446h-301zM496 915l317 447h301l-323 -447l323 -446h-301z" />
    <glyph glyph-name="registered" unicode="&#xae;" horiz-adv-x="1230" 
d="M584 643q-260 0 -412 141.5t-152 382.5t147 383t398 142h37q275 0 421.5 -158t121.5 -428q-20 -214 -171.5 -338.5t-389.5 -124.5zM184 1167q0 -169 108 -269t292 -101q185 2 293 101.5t108 268.5t-107.5 269.5t-291.5 101.5q-184 -1 -293 -101.5t-109 -269.5zM338 911
v514h317q75 0 119.5 -49t44.5 -133q0 -50 -22.5 -92t-61.5 -66l123 -174h-162l-108 152h-119v-152h-131zM469 1190h145q31 0 49.5 14t18.5 39t-18.5 39t-49.5 14h-145v-106z" />
    <glyph glyph-name="macron" unicode="&#xaf;" horiz-adv-x="921" 
d="M154 1495v229h614v-229h-614z" />
    <glyph glyph-name="degree" unicode="&#xb0;" horiz-adv-x="761" 
d="M381 1184q-138 0 -218.5 80.5t-80.5 218.5t80.5 218.5t218.5 80.5t218.5 -80.5t80.5 -218.5t-80.5 -218.5t-218.5 -80.5zM279 1483q0 -68 27.5 -107t74.5 -39t74.5 39t27.5 107q0 70 -27.5 109t-74.5 36q-47 -2 -74.5 -40.5t-27.5 -104.5z" />
    <glyph glyph-name="uni00B2" unicode="&#xb2;" horiz-adv-x="608" 
d="M78 1321q4 71 67 133t164 98q65 23 66 50q0 23 -47 27q-7 1 -15 1q-46 0 -64 -14t-13 -43h-144q-6 90 55 142t166 52q90 -2 144.5 -48t54.5 -122q0 -53 -41 -98.5t-125 -73.5q-65 -23 -98 -53h282l-28 -135h-424v84z" />
    <glyph glyph-name="uni00B3" unicode="&#xb3;" horiz-adv-x="600" 
d="M299 1221q-103 8 -163 62.5t-54 143.5h133q3 -74 84 -77q82 0 82 47q0 51 -98 45v125q61 -9 73 41q5 15 -7 22.5t-44 7.5h-4q-59 0 -59 -59h-136q-4 85 51.5 136.5t147.5 51.5q92 -2 144 -47t45 -121q-9 -50 -45 -86q69 -37 69 -118q0 -78 -60 -126t-159 -48z" />
    <glyph glyph-name="acute" unicode="&#xb4;" horiz-adv-x="815" 
d="M377 1446h-223l196 278h285z" />
    <glyph glyph-name="periodcentered" unicode="&#xb7;" horiz-adv-x="567" 
d="M154 1104v260h260v-260h-260z" />
    <glyph glyph-name="cedilla" unicode="&#xb8;" horiz-adv-x="747" 
d="M362 -82q-96 0 -152 41.5t-56 110.5h120q0 -18 24 -28.5t64 -10.5q87 0 87 32q0 26 -49 42t-132 16v47l97 141h182l-115 -108q83 -12 125.5 -53t34.5 -101q-7 -60 -69 -94.5t-161 -34.5z" />
    <glyph glyph-name="uni00B9" unicode="&#xb9;" horiz-adv-x="481" 
d="M158 1235l-4 489h172l2 -489h-170z" />
    <glyph glyph-name="ordmasculine" unicode="&#xba;" horiz-adv-x="690" 
d="M342 1221q-128 0 -204.5 70.5t-76.5 191.5t74.5 192.5t200.5 71.5h16q138 0 212 -80t63 -215q-11 -106 -88 -168.5t-197 -62.5zM201 1483q0 -60 38 -94.5t103 -34.5q68 0 105.5 34t37.5 95t-37.5 96t-103.5 35q-67 0 -105 -34.5t-38 -96.5z" />
    <glyph glyph-name="guillemotright" unicode="&#xbb;" horiz-adv-x="1155" 
d="M817 469h-301l324 446l-324 447h301l318 -447zM41 469l324 446l-324 447h301l317 -447l-317 -446h-301z" />
    <glyph glyph-name="questiondown" unicode="&#xbf;" horiz-adv-x="1200" 
d="M739 905q0 -70 -21 -128t-55 -98.5t-75.5 -75.5t-82.5 -66t-75 -63t-55 -74t-21 -91q0 -75 67.5 -119.5t182.5 -44.5q104 0 171.5 40t76.5 108h266q-3 -184 -144.5 -290.5t-379.5 -104.5q-236 2 -374 108t-138 287q0 75 22 138.5t57.5 107t78 80.5t85.5 68.5t78.5 63
t57.5 70.5t22 84h256zM483 1030v256h254v-256h-254z" />
    <glyph glyph-name="Agrave" unicode="&#xc0;" horiz-adv-x="1640" 
d="M27 307l635 1331h317l635 -1331h-303l-113 246h-756l-112 -246h-303zM469 2021h285l196 -278h-223zM557 801h526l-264 573z" />
    <glyph glyph-name="Aacute" unicode="&#xc1;" horiz-adv-x="1640" 
d="M27 307l635 1331h317l635 -1331h-303l-113 246h-756l-112 -246h-303zM557 801h526l-264 573zM686 1743l197 278h284l-258 -278h-223z" />
    <glyph glyph-name="Acircumflex" unicode="&#xc2;" horiz-adv-x="1640" 
d="M27 307l635 1331h317l635 -1331h-303l-113 246h-756l-112 -246h-303zM504 1743l215 278h205l215 -278h-224l-94 135l-94 -135h-223zM557 801h526l-264 573z" />
    <glyph glyph-name="Atilde" unicode="&#xc3;" horiz-adv-x="1640" 
d="M27 307l635 1331h317l635 -1331h-303l-113 246h-756l-112 -246h-303zM438 1733q0 139 56 221t151 82q44 0 89.5 -16.5t75.5 -36t62.5 -36t55.5 -16.5q43 0 68.5 24.5t25.5 65.5h180q0 -138 -63 -219.5t-170 -81.5q-46 0 -91.5 16t-75.5 34.5t-63.5 34.5t-58.5 16
q-28 0 -45 -24t-17 -64h-180zM557 801h526l-264 573z" />
    <glyph glyph-name="Adieresis" unicode="&#xc4;" horiz-adv-x="1640" 
d="M27 307l635 1331h317l635 -1331h-303l-113 246h-756l-112 -246h-303zM500 1894q0 56 41 96t98 40q56 0 96.5 -40.5t40.5 -95.5q0 -58 -40.5 -98.5t-96.5 -40.5q-57 0 -98 40.5t-41 98.5zM557 801h526l-264 573zM868 1894q0 55 41.5 95.5t98.5 40.5q56 0 96.5 -40.5
t40.5 -95.5q0 -58 -40.5 -98.5t-96.5 -40.5q-57 0 -98.5 40.5t-41.5 98.5z" />
    <glyph glyph-name="Aring" unicode="&#xc5;" horiz-adv-x="1640" 
d="M27 307l635 1331h317l635 -1331h-303l-113 246h-756l-112 -246h-303zM557 801h526l-264 573zM664 1884q0 68 41.5 108t111.5 40h8q76 0 118 -44.5t36 -119.5q-6 -60 -49 -94.5t-111 -34.5q-71 0 -113 39t-42 106zM774 1884q0 -20 12.5 -31.5t32.5 -11.5q22 0 34.5 11.5
t12.5 31.5q0 45 -47 45q-21 0 -33 -12t-12 -33z" />
    <glyph glyph-name="AE" unicode="&#xc6;" horiz-adv-x="2555" 
d="M27 307l1003 1331h1372v-247h-1007v-275h897v-248h-897v-313l1007 -2v-246h-1263v287h-594l-215 -287h-303zM731 842h408v542z" />
    <glyph glyph-name="Ccedilla" unicode="&#xc7;" horiz-adv-x="1562" 
d="M772 -82q-96 0 -152.5 41.5t-56.5 110.5h121q0 -18 24 -28.5t64 -10.5q86 0 86 32q0 26 -48.5 42t-131.5 16v47l72 104q-309 10 -488.5 201.5t-179.5 509.5q0 326 189 516.5t513 190.5q278 0 467.5 -114.5t233.5 -309.5h-273q-19 80 -134.5 128t-293.5 48
q-198 0 -314 -123.5t-116 -333.5q0 -214 116 -339.5t314 -125.5q178 0 293.5 48t134.5 130h273q-37 -169 -185 -279t-374 -138l-84 -80q83 -12 125 -53t34 -101q-7 -60 -69 -94.5t-160 -34.5z" />
    <glyph glyph-name="Egrave" unicode="&#xc8;" horiz-adv-x="1570" 
d="M154 307v1331h1263v-247h-1007v-275h897v-248h-897v-313l1007 -2v-246h-1263zM545 2001h284l197 -279h-223z" />
    <glyph glyph-name="Eacute" unicode="&#xc9;" horiz-adv-x="1570" 
d="M154 307v1331h1263v-247h-1007v-275h897v-248h-897v-313l1007 -2v-246h-1263zM545 1722l196 279h285l-258 -279h-223z" />
    <glyph glyph-name="Ecircumflex" unicode="&#xca;" horiz-adv-x="1570" 
d="M154 307v1331h1263v-247h-1007v-275h897v-248h-897v-313l1007 -2v-246h-1263zM469 1722l215 279h205l215 -279h-223l-95 136l-94 -136h-223z" />
    <glyph glyph-name="Edieresis" unicode="&#xcb;" horiz-adv-x="1570" 
d="M154 307v1331h1263v-247h-1007v-275h897v-248h-897v-313l1007 -2v-246h-1263zM465 1874q0 55 41 95t98 40q56 0 96.5 -40t40.5 -95q0 -58 -40.5 -98.5t-96.5 -40.5q-57 0 -98 40.5t-41 98.5zM834 1874q0 55 41 95t98 40q56 0 96.5 -40t40.5 -95q0 -58 -40.5 -98.5
t-96.5 -40.5q-57 0 -98 40.5t-41 98.5z" />
    <glyph glyph-name="Igrave" unicode="&#xcc;" horiz-adv-x="567" 
d="M154 307v1331h256l4 -1331h-260zM-76 2001h285l197 -279h-224z" />
    <glyph glyph-name="Iacute" unicode="&#xcd;" horiz-adv-x="567" 
d="M154 307v1331h256l4 -1331h-260zM154 1722l196 279h285l-258 -279h-223z" />
    <glyph glyph-name="Icircumflex" unicode="&#xce;" horiz-adv-x="567" 
d="M154 307v1331h256l4 -1331h-260zM-33 1722l215 279h205l215 -279h-223l-94 136l-95 -136h-223z" />
    <glyph glyph-name="Idieresis" unicode="&#xcf;" horiz-adv-x="567" 
d="M154 307v1331h256l4 -1331h-260zM-37 1874q0 55 41 95t98 40q56 0 97 -40t41 -95q0 -58 -41 -98.5t-97 -40.5q-57 0 -98 40.5t-41 98.5zM332 1874q0 55 41 95t98 40q56 0 96.5 -40t40.5 -95q0 -58 -40.5 -98.5t-96.5 -40.5q-57 0 -98 40.5t-41 98.5z" />
    <glyph glyph-name="Eth" unicode="&#xd0;" horiz-adv-x="1544" 
d="M0 866v209h154v563h553q348 0 551.5 -180t203.5 -489q0 -305 -203.5 -483.5t-551.5 -178.5h-553v559h-154zM410 553h297q223 0 353 113t130 305q0 193 -130.5 306.5t-352.5 113.5h-297v-316h213v-209h-213v-313z" />
    <glyph glyph-name="Ntilde" unicode="&#xd1;" horiz-adv-x="1617" 
d="M135 307l-4 1331h322l778 -1017l-4 1017h256l4 -1331h-322l-778 1018l4 -1018h-256zM426 1733q0 139 56 221t151 82q44 0 89 -16.5t75 -36t62.5 -36t55.5 -16.5q43 0 69 24.5t26 65.5h180q0 -138 -63.5 -219.5t-170.5 -81.5q-46 0 -91.5 16t-75 34.5t-63 34.5t-58.5 16
q-28 0 -45 -24t-17 -64h-180z" />
    <glyph glyph-name="Ograve" unicode="&#xd2;" horiz-adv-x="1689" 
d="M846 272q-352 0 -558 191t-206 518q0 326 206 516.5t558 190.5q351 0 556.5 -190.5t205.5 -514.5q0 -327 -205.5 -519t-556.5 -192zM354 983q0 -213 133 -338t359 -125t357.5 124.5t131.5 338.5q0 211 -131.5 334t-357.5 123t-359 -123.5t-133 -333.5zM543 2050h284
l197 -278h-223z" />
    <glyph glyph-name="Oacute" unicode="&#xd3;" horiz-adv-x="1689" 
d="M846 272q-352 0 -558 191t-206 518q0 326 206 516.5t558 190.5q351 0 556.5 -190.5t205.5 -514.5q0 -327 -205.5 -519t-556.5 -192zM354 983q0 -213 133 -338t359 -125t357.5 124.5t131.5 338.5q0 211 -131.5 334t-357.5 123t-359 -123.5t-133 -333.5zM604 1772l197 278
h284l-258 -278h-223z" />
    <glyph glyph-name="Ocircumflex" unicode="&#xd4;" horiz-adv-x="1689" 
d="M846 272q-352 0 -558 191t-206 518q0 326 206 516.5t558 190.5q351 0 556.5 -190.5t205.5 -514.5q0 -327 -205.5 -519t-556.5 -192zM354 983q0 -213 133 -338t359 -125t357.5 124.5t131.5 338.5q0 211 -131.5 334t-357.5 123t-359 -123.5t-133 -333.5zM528 1772l215 278
h205l215 -278h-223l-94 135l-94 -135h-224z" />
    <glyph glyph-name="Otilde" unicode="&#xd5;" horiz-adv-x="1689" 
d="M846 272q-352 0 -558 191t-206 518q0 326 206 516.5t558 190.5q351 0 556.5 -190.5t205.5 -514.5q0 -327 -205.5 -519t-556.5 -192zM354 983q0 -213 133 -338t359 -125t357.5 124.5t131.5 338.5q0 211 -131.5 334t-357.5 123t-359 -123.5t-133 -333.5zM463 1761
q0 139 56 221t151 82q44 0 89 -16t75 -36t62.5 -36t55.5 -16q43 0 69 24.5t26 65.5h180q0 -138 -63.5 -219.5t-170.5 -81.5q-58 0 -113.5 25t-100 50t-74.5 25q-28 0 -45 -24t-17 -64h-180z" />
    <glyph glyph-name="Odieresis" unicode="&#xd6;" horiz-adv-x="1689" 
d="M846 272q-352 0 -558 191t-206 518q0 326 206 516.5t558 190.5q351 0 556.5 -190.5t205.5 -514.5q0 -327 -205.5 -519t-556.5 -192zM354 983q0 -213 133 -338t359 -125t357.5 124.5t131.5 338.5q0 211 -131.5 334t-357.5 123t-359 -123.5t-133 -333.5zM524 1923
q0 55 41.5 95t98.5 40q56 0 96.5 -40t40.5 -95q0 -58 -40.5 -98.5t-96.5 -40.5q-57 0 -98.5 40.5t-41.5 98.5zM893 1923q0 55 41 95t98 40q56 0 96.5 -40t40.5 -95q0 -58 -40.5 -98.5t-96.5 -40.5q-57 0 -98 40.5t-41 98.5z" />
    <glyph glyph-name="multiply" unicode="&#xd7;" horiz-adv-x="1265" 
d="M154 1296l176 174l303 -303l303 303l176 -174l-303 -303l303 -305l-176 -174l-303 303l-303 -303l-176 174l305 305z" />
    <glyph glyph-name="Oslash" unicode="&#xd8;" horiz-adv-x="1689" 
d="M383 391q-146 90 -223.5 241t-77.5 349q0 326 206 516.5t558 190.5q155 0 289 -39l45 75h274l-108 -180q127 -91 194.5 -234.5t67.5 -326.5q0 -327 -205.5 -519t-556.5 -192q-124 0 -250 29l-92 -154h-266zM354 983q0 -239 164 -365l481 805q-80 17 -153 17
q-226 0 -359 -123.5t-133 -333.5zM733 528q49 -8 113 -8q226 0 357.5 124.5t131.5 338.5q0 210 -129 330z" />
    <glyph glyph-name="Ugrave" unicode="&#xd9;" horiz-adv-x="1671" 
d="M850 244q-317 0 -504 154.5t-190 418.5l-2 821h262l-2 -821q3 -151 120.5 -238t315.5 -87q201 0 321 87.5t123 237.5l-2 821h246l2 -821q-3 -264 -189 -418.5t-501 -154.5zM518 2001h285l196 -279h-223z" />
    <glyph glyph-name="Uacute" unicode="&#xda;" horiz-adv-x="1671" 
d="M850 244q-317 0 -504 154.5t-190 418.5l-2 821h262l-2 -821q3 -151 120.5 -238t315.5 -87q201 0 321 87.5t123 237.5l-2 821h246l2 -821q-3 -264 -189 -418.5t-501 -154.5zM696 1722l197 279h285l-258 -279h-224z" />
    <glyph glyph-name="Ucircumflex" unicode="&#xdb;" horiz-adv-x="1671" 
d="M850 244q-317 0 -504 154.5t-190 418.5l-2 821h262l-2 -821q3 -151 120.5 -238t315.5 -87q201 0 321 87.5t123 237.5l-2 821h246l2 -821q-3 -264 -189 -418.5t-501 -154.5zM518 1722l215 279h205l215 -279h-223l-94 136l-95 -136h-223z" />
    <glyph glyph-name="Udieresis" unicode="&#xdc;" horiz-adv-x="1671" 
d="M850 244q-317 0 -504 154.5t-190 418.5l-2 821h262l-2 -821q3 -151 120.5 -238t315.5 -87q201 0 321 87.5t123 237.5l-2 821h246l2 -821q-3 -264 -189 -418.5t-501 -154.5zM514 1874q0 55 41 95t98 40q56 0 97 -40t41 -95q0 -58 -41 -98.5t-97 -40.5q-57 0 -98 40.5
t-41 98.5zM883 1874q0 55 41 95t98 40q56 0 96.5 -40t40.5 -95q0 -58 -40.5 -98.5t-96.5 -40.5q-57 0 -98 40.5t-41 98.5z" />
    <glyph glyph-name="Yacute" unicode="&#xdd;" horiz-adv-x="1546" 
d="M643 307v516l-616 815h313l438 -583l428 583h314l-609 -815v-516h-268zM637 1722l197 279h284l-258 -279h-223z" />
    <glyph glyph-name="Thorn" unicode="&#xde;" horiz-adv-x="1335" 
d="M156 307l-2 1331h256v-200h385q212 0 337 -123t125 -332t-124 -331t-338 -122h-383v-223h-256zM410 1190l2 -412h383q88 0 139 55.5t51 149.5q0 95 -51.5 151t-140.5 56h-383z" />
    <glyph glyph-name="germandbls" unicode="&#xdf;" horiz-adv-x="1425" 
d="M154 1421q6 160 150.5 254t385.5 94q255 0 405 -108.5t150 -292.5q0 -116 -42.5 -195.5t-121.5 -111.5q127 -36 197 -119.5t70 -204.5q0 -198 -164.5 -314t-444.5 -116l-127 187q42 0 138.5 15t140.5 26q98 25 155.5 80t57.5 124q0 89 -92 142t-250 53v227
q110 0 174.5 56t64.5 153q0 75 -84 121t-227 51q-134 -3 -212.5 -49t-78.5 -121l-2 -1065h-243v1114z" />
    <glyph glyph-name="agrave" unicode="&#xe0;" horiz-adv-x="1284" 
d="M563 272q-231 0 -366.5 95t-135.5 256q0 142 152 236.5t412 113.5q54 3 166.5 15t158.5 16v24q0 63 -86.5 99t-236.5 36q-143 0 -231 -36t-95 -99h-231q3 169 153 267t404 96q255 -2 405 -99.5t150 -263.5v-721h-209l-10 94q-157 -129 -400 -129zM305 623
q0 -68 70.5 -107t191.5 -39q142 0 245 41t151 115q0 133 -2 180q-207 -27 -394 -45q-121 -12 -191.5 -51.5t-70.5 -93.5zM385 1753h285l196 -278h-223z" />
    <glyph glyph-name="aacute" unicode="&#xe1;" horiz-adv-x="1284" 
d="M563 272q-231 0 -366.5 95t-135.5 256q0 142 152 236.5t412 113.5q54 3 166.5 15t158.5 16v24q0 63 -86.5 99t-236.5 36q-143 0 -231 -36t-95 -99h-231q3 169 153 267t404 96q255 -2 405 -99.5t150 -263.5v-721h-209l-10 94q-157 -129 -400 -129zM305 623
q0 -68 70.5 -107t191.5 -39q142 0 245 41t151 115q0 133 -2 180q-207 -27 -394 -45q-121 -12 -191.5 -51.5t-70.5 -93.5zM385 1475l197 278h284l-258 -278h-223z" />
    <glyph glyph-name="acircumflex" unicode="&#xe2;" horiz-adv-x="1284" 
d="M563 272q-231 0 -366.5 95t-135.5 256q0 142 152 236.5t412 113.5q54 3 166.5 15t158.5 16v24q0 63 -86.5 99t-236.5 36q-143 0 -231 -36t-95 -99h-231q3 169 153 267t404 96q255 -2 405 -99.5t150 -263.5v-721h-209l-10 94q-157 -129 -400 -129zM305 623
q0 -68 70.5 -107t191.5 -39q142 0 245 41t151 115q0 133 -2 180q-207 -27 -394 -45q-121 -12 -191.5 -51.5t-70.5 -93.5zM309 1475l215 278h205l215 -278h-223l-94 135l-95 -135h-223z" />
    <glyph glyph-name="atilde" unicode="&#xe3;" horiz-adv-x="1284" 
d="M563 272q-231 0 -366.5 95t-135.5 256q0 142 152 236.5t412 113.5q54 3 166.5 15t158.5 16v24q0 63 -86.5 99t-236.5 36q-143 0 -231 -36t-95 -99h-231q3 169 153 267t404 96q255 -2 405 -99.5t150 -263.5v-721h-209l-10 94q-157 -129 -400 -129zM244 1464q0 139 56 221
t151 82q44 0 89 -16.5t75 -35.5t62.5 -35.5t55.5 -16.5q43 0 68.5 24.5t25.5 65.5h181q0 -138 -63.5 -219.5t-170.5 -81.5q-58 0 -114 25t-100.5 50t-74.5 25q-28 0 -44.5 -24t-16.5 -64h-180zM305 623q0 -68 70.5 -107t191.5 -39q142 0 245 41t151 115q0 133 -2 180
q-207 -27 -394 -45q-121 -12 -191.5 -51.5t-70.5 -93.5z" />
    <glyph glyph-name="adieresis" unicode="&#xe4;" horiz-adv-x="1284" 
d="M563 272q-231 0 -366.5 95t-135.5 256q0 142 152 236.5t412 113.5q54 3 166.5 15t158.5 16v24q0 63 -86.5 99t-236.5 36q-143 0 -231 -36t-95 -99h-231q3 169 153 267t404 96q255 -2 405 -99.5t150 -263.5v-721h-209l-10 94q-157 -129 -400 -129zM305 623
q0 -68 70.5 -107t191.5 -39q142 0 245 41t151 115q0 133 -2 180q-207 -27 -394 -45q-121 -12 -191.5 -51.5t-70.5 -93.5zM305 1626q0 55 41 95t98 40q56 0 97 -40t41 -95q0 -58 -41 -98.5t-97 -40.5q-57 0 -98 40.5t-41 98.5zM674 1626q0 55 41 95t98 40q56 0 96.5 -40
t40.5 -95q0 -58 -40.5 -98.5t-96.5 -40.5q-57 0 -98 40.5t-41 98.5z" />
    <glyph glyph-name="aring" unicode="&#xe5;" horiz-adv-x="1284" 
d="M563 272q-231 0 -366.5 95t-135.5 256q0 142 152 236.5t412 113.5q54 3 166.5 15t158.5 16v24q0 63 -86.5 99t-236.5 36q-143 0 -231 -36t-95 -99h-231q3 169 153 267t404 96q255 -2 405 -99.5t150 -263.5v-721h-209l-10 94q-157 -129 -400 -129zM305 623
q0 -68 70.5 -107t191.5 -39q142 0 245 41t151 115q0 133 -2 180q-207 -27 -394 -45q-121 -12 -191.5 -51.5t-70.5 -93.5zM469 1616q0 67 41.5 107t112.5 40h8q76 0 117.5 -44.5t35.5 -119.5q-6 -60 -48.5 -94.5t-110.5 -34.5q-71 0 -113.5 39.5t-42.5 106.5zM580 1616
q0 -20 12.5 -31.5t32.5 -11.5q22 0 34.5 11.5t12.5 31.5q0 45 -47 45q-21 0 -33 -12t-12 -33z" />
    <glyph glyph-name="ae" unicode="&#xe6;" horiz-adv-x="2228" 
d="M580 272q-238 0 -378.5 95t-140.5 256q0 142 152 236.5t412 113.5q54 3 166.5 15t158.5 16v24q0 63 -86.5 99t-236.5 36q-143 0 -231 -36t-95 -99h-231q3 169 153 267t404 96q181 -1 310 -51.5t191 -141.5q76 93 194 143t267 50q243 0 398 -125.5t178 -339.5
q10 -156 8 -178h-911q23 -116 113 -181t229 -65q135 0 222 35.5t101 95.5h232q0 -170 -156 -267t-422 -92q-164 3 -288 64.5t-197 171.5q-80 -114 -213 -176t-303 -62zM305 623q0 -68 70.5 -107t191.5 -39q176 0 282 81.5t114 221.5l-2 33q-207 -27 -394 -45
q-122 -12 -192 -51t-70 -94zM1274 954h665q-23 97 -115.5 153t-234.5 56q-119 0 -200.5 -55t-114.5 -154z" />
    <glyph glyph-name="ccedilla" unicode="&#xe7;" horiz-adv-x="1251" 
d="M616 -82q-96 0 -152 41.5t-56 110.5h120q0 -18 24 -28.5t64 -10.5q86 0 86 32q0 26 -48.5 42t-131.5 16v47l74 108q-248 12 -391.5 162.5t-143.5 397.5q0 254 155 404t419 151q252 2 402 -96t153 -267h-232q-7 63 -94 99t-229 36q-152 0 -241 -88t-89 -239
q0 -154 89 -244t241 -90q130 0 217 35.5t106 95.5h232q-3 -142 -114 -234.5t-304 -115.5l-86 -82q83 -12 125.5 -53t34.5 -101q-7 -60 -69 -94.5t-161 -34.5z" />
    <glyph glyph-name="egrave" unicode="&#xe8;" horiz-adv-x="1292" 
d="M645 274q-263 5 -417 153.5t-154 397.5q0 261 156 413.5t423 152.5q243 0 398 -125.5t178 -339.5q10 -156 8 -178h-911q23 -116 113 -181t229 -65q135 0 222 35.5t101 95.5h232q0 -170 -156 -267t-422 -92zM338 954h666q-23 97 -116 153t-235 56q-119 0 -200.5 -55
t-114.5 -154zM406 1724h284l197 -278h-223z" />
    <glyph glyph-name="eacute" unicode="&#xe9;" horiz-adv-x="1292" 
d="M645 274q-263 5 -417 153.5t-154 397.5q0 261 156 413.5t423 152.5q243 0 398 -125.5t178 -339.5q10 -156 8 -178h-911q23 -116 113 -181t229 -65q135 0 222 35.5t101 95.5h232q0 -170 -156 -267t-422 -92zM338 954h666q-23 97 -116 153t-235 56q-119 0 -200.5 -55
t-114.5 -154zM406 1446l196 278h285l-258 -278h-223z" />
    <glyph glyph-name="ecircumflex" unicode="&#xea;" horiz-adv-x="1292" 
d="M645 274q-263 5 -417 153.5t-154 397.5q0 261 156 413.5t423 152.5q243 0 398 -125.5t178 -339.5q10 -156 8 -178h-911q23 -116 113 -181t229 -65q135 0 222 35.5t101 95.5h232q0 -170 -156 -267t-422 -92zM330 1446l215 278h205l215 -278h-224l-94 135l-94 -135h-223z
M338 954h666q-23 97 -116 153t-235 56q-119 0 -200.5 -55t-114.5 -154z" />
    <glyph glyph-name="edieresis" unicode="&#xeb;" horiz-adv-x="1292" 
d="M645 274q-263 5 -417 153.5t-154 397.5q0 261 156 413.5t423 152.5q243 0 398 -125.5t178 -339.5q10 -156 8 -178h-911q23 -116 113 -181t229 -65q135 0 222 35.5t101 95.5h232q0 -170 -156 -267t-422 -92zM326 1597q0 56 41 96t98 40q56 0 96.5 -40.5t40.5 -95.5
q0 -58 -40.5 -98.5t-96.5 -40.5q-57 0 -98 40.5t-41 98.5zM338 954h666q-23 97 -116 153t-235 56q-119 0 -200.5 -55t-114.5 -154zM694 1597q0 55 41.5 95.5t98.5 40.5q56 0 96.5 -40.5t40.5 -95.5q0 -58 -40.5 -98.5t-96.5 -40.5q-57 0 -98.5 40.5t-41.5 98.5z" />
    <glyph glyph-name="igrave" unicode="&#xec;" horiz-adv-x="483" 
d="M125 307v1055h244v-1055h-244zM-119 1724h285l196 -278h-223z" />
    <glyph glyph-name="iacute" unicode="&#xed;" horiz-adv-x="483" 
d="M125 307v1055h244v-1055h-244zM121 1446l196 278h285l-258 -278h-223z" />
    <glyph glyph-name="icircumflex" unicode="&#xee;" horiz-adv-x="483" 
d="M125 307v1055h244v-1055h-244zM-61 1446l215 278h204l215 -278h-223l-94 135l-94 -135h-223z" />
    <glyph glyph-name="idieresis" unicode="&#xef;" horiz-adv-x="483" 
d="M125 307v1055h244v-1055h-244zM-66 1597q0 55 41.5 95.5t98.5 40.5q56 0 96.5 -40.5t40.5 -95.5q0 -58 -40.5 -98.5t-96.5 -40.5q-57 0 -98.5 40.5t-41.5 98.5zM303 1597q0 56 41 96t98 40q56 0 97 -40.5t41 -95.5q0 -58 -41 -98.5t-97 -40.5q-57 0 -98 40.5t-41 98.5z
" />
    <glyph glyph-name="eth" unicode="&#xf0;" horiz-adv-x="1247" 
d="M586 274q-244 0 -397.5 118t-172.5 319q-23 224 115.5 355.5t398.5 131.5q113 0 214.5 -33t164.5 -90q-9 192 -211 342l-270 -174l-94 160l178 119q-90 39 -190 63l98 199q182 -35 319 -111l228 152l114 -160l-170 -111q122 -108 188 -255t66 -318q0 -173 -46 -322
t-124 -231q-62 -71 -172 -112.5t-237 -41.5zM260 737q0 -100 81.5 -157.5t221.5 -57.5q135 0 215 58t80 157q0 97 -83 154t-226 59q-133 -1 -211 -58.5t-78 -154.5z" />
    <glyph glyph-name="ntilde" unicode="&#xf1;" horiz-adv-x="1382" 
d="M113 307v1055h243v-154q163 183 459 183q214 0 339.5 -150.5t125.5 -406.5v-527h-233v527q0 152 -77.5 240.5t-209.5 88.5q-186 0 -295 -111t-109 -300v-445h-243zM309 1477q0 139 56 221t151 82q44 0 89.5 -16.5t75.5 -36t62.5 -36t55.5 -16.5q43 0 68.5 24.5t25.5 65.5
h180q0 -138 -63 -219.5t-170 -81.5q-46 0 -91.5 16t-75.5 34.5t-63.5 34.5t-58.5 16q-28 0 -45 -24t-17 -64h-180z" />
    <glyph glyph-name="ograve" unicode="&#xf2;" horiz-adv-x="1327" 
d="M662 272q-277 0 -439 150.5t-162 408.5t157.5 409t424.5 151h39q293 0 449.5 -169t130.5 -456q-22 -227 -183.5 -360.5t-416.5 -133.5zM305 831q0 -150 98 -239.5t259 -91.5q162 2 260 91t98 240q0 150 -97.5 240t-258.5 92q-162 -2 -260.5 -91.5t-98.5 -240.5zM422 1753
h285l196 -278h-223z" />
    <glyph glyph-name="oacute" unicode="&#xf3;" horiz-adv-x="1327" 
d="M662 272q-277 0 -439 150.5t-162 408.5t157.5 409t424.5 151h39q293 0 449.5 -169t130.5 -456q-22 -227 -183.5 -360.5t-416.5 -133.5zM305 831q0 -150 98 -239.5t259 -91.5q162 2 260 91t98 240q0 150 -97.5 240t-258.5 92q-162 -2 -260.5 -91.5t-98.5 -240.5zM422 1475
l196 278h285l-258 -278h-223z" />
    <glyph glyph-name="ocircumflex" unicode="&#xf4;" horiz-adv-x="1327" 
d="M662 272q-277 0 -439 150.5t-162 408.5t157.5 409t424.5 151h39q293 0 449.5 -169t130.5 -456q-22 -227 -183.5 -360.5t-416.5 -133.5zM305 831q0 -150 98 -239.5t259 -91.5q162 2 260 91t98 240q0 150 -97.5 240t-258.5 92q-162 -2 -260.5 -91.5t-98.5 -240.5zM346 1475
l215 278h205l215 -278h-223l-94 135l-95 -135h-223z" />
    <glyph glyph-name="otilde" unicode="&#xf5;" horiz-adv-x="1327" 
d="M662 272q-277 0 -439 150.5t-162 408.5t157.5 409t424.5 151h39q293 0 449.5 -169t130.5 -456q-22 -227 -183.5 -360.5t-416.5 -133.5zM281 1464q0 140 55.5 221.5t150.5 81.5q44 0 89.5 -16.5t75.5 -35.5t62.5 -35.5t55.5 -16.5q43 0 68.5 24.5t25.5 65.5h180
q0 -138 -63 -219.5t-170 -81.5q-58 0 -114 25t-100.5 50t-74.5 25q-28 0 -44.5 -24t-16.5 -64h-180zM305 831q0 -150 98 -239.5t259 -91.5q162 2 260 91t98 240q0 150 -97.5 240t-258.5 92q-162 -2 -260.5 -91.5t-98.5 -240.5z" />
    <glyph glyph-name="odieresis" unicode="&#xf6;" horiz-adv-x="1327" 
d="M662 272q-277 0 -439 150.5t-162 408.5t157.5 409t424.5 151h39q293 0 449.5 -169t130.5 -456q-22 -227 -183.5 -360.5t-416.5 -133.5zM305 831q0 -150 98 -239.5t259 -91.5q162 2 260 91t98 240q0 150 -97.5 240t-258.5 92q-162 -2 -260.5 -91.5t-98.5 -240.5zM342 1626
q0 55 41 95t98 40q56 0 96.5 -40t40.5 -95q0 -58 -40.5 -98.5t-96.5 -40.5q-57 0 -98 40.5t-41 98.5zM711 1626q0 55 41 95t98 40q56 0 96.5 -40t40.5 -95q0 -58 -40.5 -98.5t-96.5 -40.5q-57 0 -98 40.5t-41 98.5z" />
    <glyph glyph-name="oslash" unicode="&#xf8;" horiz-adv-x="1327" 
d="M203 168l106 190q-120 71 -184 192t-64 281q0 258 157.5 409t424.5 151h39q96 0 190 -23l48 84h210l-88 -156q122 -79 179.5 -215t40.5 -315q-22 -227 -183.5 -360.5t-416.5 -133.5q-102 0 -187 21l-69 -125h-203zM305 831q0 -170 123 -260l326 584q-58 8 -90 8
q-162 -2 -260.5 -91.5t-98.5 -240.5zM596 504q40 -4 66 -4q162 2 260 91t98 240q0 156 -102 244z" />
    <glyph glyph-name="ugrave" unicode="&#xf9;" horiz-adv-x="1359" 
d="M582 285q-226 0 -366 151.5t-140 405.5v526h243v-547q0 -142 86 -225.5t232 -83.5q177 0 282 143.5t105 374.5v332h244v-1055h-244v160q-176 -182 -442 -182zM438 1755h285l197 -278h-224z" />
    <glyph glyph-name="uacute" unicode="&#xfa;" horiz-adv-x="1359" 
d="M582 285q-226 0 -366 151.5t-140 405.5v526h243v-547q0 -142 86 -225.5t232 -83.5q177 0 282 143.5t105 374.5v332h244v-1055h-244v160q-176 -182 -442 -182zM438 1477l197 278h285l-258 -278h-224z" />
    <glyph glyph-name="ucircumflex" unicode="&#xfb;" horiz-adv-x="1359" 
d="M582 285q-226 0 -366 151.5t-140 405.5v526h243v-547q0 -142 86 -225.5t232 -83.5q177 0 282 143.5t105 374.5v332h244v-1055h-244v160q-176 -182 -442 -182zM362 1477l216 278h204l215 -278h-223l-94 135l-94 -135h-224z" />
    <glyph glyph-name="udieresis" unicode="&#xfc;" horiz-adv-x="1359" 
d="M582 285q-226 0 -366 151.5t-140 405.5v526h243v-547q0 -142 86 -225.5t232 -83.5q177 0 282 143.5t105 374.5v332h244v-1055h-244v160q-176 -182 -442 -182zM358 1628q0 55 41.5 95t98.5 40q56 0 96.5 -40t40.5 -95q0 -58 -40.5 -98.5t-96.5 -40.5q-57 0 -98.5 40.5
t-41.5 98.5zM727 1628q0 55 41 95t98 40q56 0 97 -40t41 -95q0 -58 -41 -98.5t-97 -40.5q-57 0 -98 40.5t-41 98.5z" />
    <glyph glyph-name="yacute" unicode="&#xfd;" horiz-adv-x="1255" 
d="M264 104q71 3 130.5 48t90.5 118l17 37l-482 1055h265l340 -776l342 776h268l-520 -1155q-65 -143 -181 -226t-251 -83zM469 1446l197 278h284l-258 -278h-223z" />
    <glyph glyph-name="thorn" unicode="&#xfe;" horiz-adv-x="1380" 
d="M125 -76v1802l242 -2v-479q153 146 378 146q264 0 419 -150.5t155 -406.5q0 -258 -158 -410t-428 -152q-209 0 -364 138v-486h-244zM354 834q0 -154 104.5 -244t284.5 -90q154 0 243 90t89 244q0 152 -94.5 240.5t-257.5 88.5q-170 0 -269.5 -88.5t-99.5 -240.5z" />
    <glyph glyph-name="ydieresis" unicode="&#xff;" horiz-adv-x="1255" 
d="M264 104q71 3 130.5 48t90.5 118l17 37l-482 1055h265l340 -776l342 776h268l-520 -1155q-65 -143 -181 -226t-251 -83zM307 1597q0 56 41 96t98 40q56 0 97 -40.5t41 -95.5q0 -58 -41 -98.5t-97 -40.5q-57 0 -98 40.5t-41 98.5zM676 1597q0 56 41 96t98 40
q56 0 96.5 -40.5t40.5 -95.5q0 -58 -40.5 -98.5t-96.5 -40.5q-57 0 -98 40.5t-41 98.5z" />
    <glyph glyph-name="dotlessi" unicode="&#x131;" horiz-adv-x="483" 
d="M125 307v1055h244v-1055h-244z" />
    <glyph glyph-name="IJ" unicode="&#x132;" horiz-adv-x="1710" 
d="M154 307v1331h256l4 -1331h-260zM532 793h259q3 -138 89 -219.5t230 -81.5q121 0 194 81.5t78 219.5l-2 845h246l2 -845q-3 -254 -142.5 -401.5t-375.5 -147.5q-263 0 -419 148t-159 401z" />
    <glyph glyph-name="ij" unicode="&#x133;" horiz-adv-x="1028" 
d="M127 307v1055h244v-1055h-244zM125 1477v247h248v-247h-248zM328 -102v206q38 2 64.5 4.5t64.5 8.5t64.5 17.5t52 28t39.5 43t16 60.5v1096h243v-1096q-4 -107 -43.5 -180.5t-113.5 -114t-166.5 -57t-220.5 -16.5zM627 1479v247h247v-247h-247z" />
    <glyph glyph-name="OE" unicode="&#x152;" horiz-adv-x="2760" 
d="M846 272q-352 0 -558 191t-206 518q0 326 206 516.5t558 190.5q297 0 497 -142v92h1264v-247h-1008v-275h898v-248h-895l-3 -8v-305l1008 -2v-246h-1264v109q-199 -144 -497 -144zM354 983q0 -213 133 -338t359 -125t357.5 124.5t131.5 338.5q0 211 -131.5 334
t-357.5 123t-359 -123.5t-133 -333.5z" />
    <glyph glyph-name="oe" unicode="&#x153;" horiz-adv-x="2238" 
d="M662 272q-277 0 -439 150.5t-162 408.5t157.5 409t424.5 151h39q153 0 271 -47.5t192 -137.5q155 185 454 185q243 0 398 -125.5t178 -339.5q10 -156 8 -178h-911q23 -116 113 -181t229 -65q135 0 222 35.5t101 95.5h232q0 -170 -156 -267t-422 -92q-297 6 -452 191
q-79 -93 -201 -143t-276 -50zM305 831q0 -150 98 -239.5t259 -91.5q162 2 260 91t98 240q0 150 -97.5 240t-258.5 92q-162 -2 -260.5 -91.5t-98.5 -240.5zM1284 954h666q-23 97 -116 153t-235 56q-119 0 -200.5 -55t-114.5 -154z" />
    <glyph glyph-name="Scaron" unicode="&#x160;" horiz-adv-x="1607" 
d="M803 283q-326 -2 -520.5 125.5t-200.5 347.5h272q15 -104 136.5 -165t312.5 -61q207 0 328.5 45t121.5 121q0 15 -10.5 28.5t-32.5 26t-45.5 23t-61 21.5t-66 18.5t-74.5 17.5t-72 15t-72 14t-63 12q-617 119 -617 412q0 180 180.5 285.5t489.5 107.5q286 1 458 -110
t181 -303h-264q-12 75 -115.5 121.5t-259.5 46.5q-182 0 -289.5 -40.5t-107.5 -107.5q0 -44 116 -96t346 -96q350 -68 501 -154.5t151 -232.5q0 -193 -195 -306.5t-528 -115.5zM487 2021h224l94 -135l94 135h223l-215 -278h-205z" />
    <glyph glyph-name="scaron" unicode="&#x161;" horiz-adv-x="1224" 
d="M594 276q-246 -1 -391 95t-148 262h232q7 -60 90 -94.5t217 -34.5q147 0 232 34.5t85 94.5q0 23 -118.5 68.5t-323.5 101.5q-203 56 -291 120t-88 160q0 140 142.5 223.5t385.5 84.5q216 1 348.5 -82t141.5 -226h-231q-8 37 -78.5 58.5t-182.5 21.5q-126 0 -200 -21.5
t-74 -58.5q0 -9 10 -17.5t33.5 -18.5t49 -19t70 -22t82.5 -23.5t100 -27.5t110 -31q186 -54 276 -119.5t90 -171.5q0 -163 -153.5 -259.5t-415.5 -97.5zM295 1724h223l94 -135l95 135h223l-215 -278h-205z" />
    <glyph glyph-name="Wcircumflex" unicode="&#x174;" horiz-adv-x="2056" 
d="M436 307l-409 1331h282l291 -1052l305 1052h246l305 -1052l291 1052h283l-410 -1331h-322l-270 926l-270 -926h-322zM711 1743l215 278h204l216 -278h-224l-94 135l-94 -135h-223z" />
    <glyph glyph-name="wcircumflex" unicode="&#x175;" horiz-adv-x="1607" 
d="M332 307l-312 1055h244l205 -772l203 772h264l203 -772l204 772h244l-311 -1055h-275l-196 727l-199 -727h-274zM487 1473l215 278h205l215 -278h-223l-94 135l-94 -135h-224z" />
    <glyph glyph-name="Ycircumflex" unicode="&#x176;" horiz-adv-x="1546" 
d="M643 307v516l-616 815h313l438 -583l428 583h314l-609 -815v-516h-268zM457 1722l215 279h205l215 -279h-224l-94 136l-94 -136h-223z" />
    <glyph glyph-name="ycircumflex" unicode="&#x177;" horiz-adv-x="1255" 
d="M264 104q71 3 130.5 48t90.5 118l17 37l-482 1055h265l340 -776l342 776h268l-520 -1155q-65 -143 -181 -226t-251 -83zM311 1446l215 278h205l215 -278h-223l-94 135l-94 -135h-224z" />
    <glyph glyph-name="Ydieresis" unicode="&#x178;" horiz-adv-x="1546" 
d="M643 307v516l-616 815h313l438 -583l428 583h314l-609 -815v-516h-268zM453 1874q0 55 41 95t98 40q56 0 96.5 -40t40.5 -95q0 -58 -40.5 -98.5t-96.5 -40.5q-57 0 -98 40.5t-41 98.5zM821 1874q0 55 41.5 95t98.5 40q56 0 96.5 -40t40.5 -95q0 -58 -40.5 -98.5
t-96.5 -40.5q-57 0 -98.5 40.5t-41.5 98.5z" />
    <glyph glyph-name="Zcaron" unicode="&#x17d;" horiz-adv-x="1404" 
d="M78 307v225l856 859h-852v247h1241v-227l-854 -856l858 -2v-246h-1249zM385 2001h223l94 -135l95 135h223l-215 -279h-205z" />
    <glyph glyph-name="zcaron" unicode="&#x17e;" horiz-adv-x="1212" 
d="M74 307v207l20 21h4l662 600h-682v227h1057v-209l-2 -2h2l-680 -616l684 -3v-225h-1065zM289 1724h223l94 -135l94 135h224l-215 -278h-205z" />
    <glyph glyph-name="uni0237" unicode="&#x237;" horiz-adv-x="643" 
d="M-55 104q38 2 64.5 4.5t64.5 8.5t64.5 17.5t52 28t39.5 43t16 60.5v1096h243v-1096q-4 -107 -43.5 -180.5t-113.5 -114t-166.5 -57t-220.5 -16.5v206z" />
    <glyph glyph-name="circumflex" unicode="&#x2c6;" horiz-adv-x="942" 
d="M154 1446l215 278h204l215 -278h-223l-94 135l-94 -135h-223z" />
    <glyph glyph-name="caron" unicode="&#x2c7;" horiz-adv-x="942" 
d="M154 1724h223l94 -135l94 135h223l-215 -278h-204z" />
    <glyph glyph-name="breve" unicode="&#x2d8;" horiz-adv-x="798" 
d="M397 1423q-139 0 -224 81.5t-91 219.5h223q5 -43 29.5 -68.5t62.5 -25.5t64.5 25.5t30.5 68.5h225q0 -138 -86 -219.5t-234 -81.5z" />
    <glyph glyph-name="dotaccent" unicode="&#x2d9;" horiz-adv-x="1228" 
d="M604 1458q-57 0 -98 40.5t-41 98.5q0 56 41 96t98 40q56 0 96.5 -40.5t40.5 -95.5q0 -58 -40.5 -98.5t-96.5 -40.5z" />
    <glyph glyph-name="ring" unicode="&#x2da;" horiz-adv-x="479" 
d="M238 1442q-71 0 -113.5 39t-42.5 106q0 68 42 108t112 40h8q76 0 117.5 -44.5t35.5 -119.5q-6 -60 -48.5 -94.5t-110.5 -34.5zM193 1587q0 -20 12.5 -31.5t32.5 -11.5q22 0 34.5 11.5t12.5 31.5q0 45 -47 45q-21 0 -33 -12t-12 -33z" />
    <glyph glyph-name="tilde" unicode="&#x2dc;" horiz-adv-x="1071" 
d="M684 1423q-58 0 -114 25.5t-100.5 50.5t-74.5 25q-28 0 -44.5 -24t-16.5 -64h-180q0 140 55.5 221.5t150.5 81.5q56 0 112 -26.5t100 -52.5t71 -26q43 0 68.5 24.5t25.5 65.5h181q0 -138 -63.5 -219.5t-170.5 -81.5z" />
    <glyph glyph-name="hungarumlaut" unicode="&#x2dd;" horiz-adv-x="1224" 
d="M496 1446l290 278h285l-332 -278h-243zM154 1446l270 278h285l-332 -278h-223z" />
    <glyph glyph-name="gravecomb" unicode="&#x300;" 
d="M412 1446l-258 278h284l197 -278h-223z" />
    <glyph glyph-name="acutecomb" unicode="&#x301;" 
d="M377 1446h-223l196 278h285z" />
    <glyph glyph-name="uni0302" unicode="&#x302;" 
d="M154 1446l215 278h204l215 -278h-223l-94 135l-94 -135h-223z" />
    <glyph glyph-name="tildecomb" unicode="&#x303;" 
d="M684 1423q-58 0 -114 25.5t-100.5 50.5t-74.5 25q-28 0 -44.5 -24t-16.5 -64h-180q0 140 55.5 221.5t150.5 81.5q56 0 112 -26.5t100 -52.5t71 -26q43 0 68.5 24.5t25.5 65.5h181q0 -138 -63.5 -219.5t-170.5 -81.5z" />
    <glyph glyph-name="uni0307" unicode="&#x307;" 
d="M604 1458q-57 0 -98 40.5t-41 98.5q0 56 41 96t98 40q56 0 96.5 -40.5t40.5 -95.5q0 -58 -40.5 -98.5t-96.5 -40.5z" />
    <glyph glyph-name="uni0308" unicode="&#x308;" 
d="M590 1458q-57 0 -98 40.5t-41 98.5q0 56 41 96t98 40q56 0 96.5 -40.5t40.5 -95.5q0 -58 -40.5 -98.5t-96.5 -40.5zM82 1597q0 56 41 96t98 40q56 0 96.5 -40.5t40.5 -95.5q0 -58 -40.5 -98.5t-96.5 -40.5q-57 0 -98 40.5t-41 98.5z" />
    <glyph glyph-name="uni030A" unicode="&#x30a;" 
d="M238 1442q-71 0 -113.5 39t-42.5 106q0 68 42 108t112 40h8q76 0 117.5 -44.5t35.5 -119.5q-6 -60 -48.5 -94.5t-110.5 -34.5zM193 1587q0 -20 12.5 -31.5t32.5 -11.5q22 0 34.5 11.5t12.5 31.5q0 45 -47 45q-21 0 -33 -12t-12 -33z" />
    <glyph glyph-name="uni0327" unicode="&#x327;" 
d="M362 -82q-96 0 -152 41.5t-56 110.5h120q0 -18 24 -28.5t64 -10.5q87 0 87 32q0 26 -49 42t-132 16v47l97 141h182l-115 -108q83 -12 125.5 -53t34.5 -101q-7 -60 -69 -94.5t-161 -34.5z" />
    <glyph glyph-name="uni0335" unicode="&#x335;" 
d="M154 889v209h622v-209h-622z" />
    <glyph glyph-name="uni0338" unicode="&#x338;" 
d="M154 221l716 1284h211l-725 -1284h-202z" />
    <glyph glyph-name="Wgrave" unicode="&#x1e80;" horiz-adv-x="2056" 
d="M436 307l-409 1331h282l291 -1052l305 1052h246l305 -1052l291 1052h283l-410 -1331h-322l-270 926l-270 -926h-322zM786 2021h285l197 -278h-224z" />
    <glyph glyph-name="wgrave" unicode="&#x1e81;" horiz-adv-x="1607" 
d="M332 307l-312 1055h244l205 -772l203 772h264l203 -772l204 772h244l-311 -1055h-275l-196 727l-199 -727h-274zM563 1751h285l196 -278h-223z" />
    <glyph glyph-name="Wacute" unicode="&#x1e82;" horiz-adv-x="2056" 
d="M436 307l-409 1331h282l291 -1052l305 1052h246l305 -1052l291 1052h283l-410 -1331h-322l-270 926l-270 -926h-322zM786 1743l197 278h285l-258 -278h-224z" />
    <glyph glyph-name="wacute" unicode="&#x1e83;" horiz-adv-x="1607" 
d="M332 307l-312 1055h244l205 -772l203 772h264l203 -772l204 772h244l-311 -1055h-275l-196 727l-199 -727h-274zM563 1473l197 278h284l-258 -278h-223z" />
    <glyph glyph-name="Wdieresis" unicode="&#x1e84;" horiz-adv-x="2056" 
d="M436 307l-409 1331h282l291 -1052l305 1052h246l305 -1052l291 1052h283l-410 -1331h-322l-270 926l-270 -926h-322zM707 1894q0 56 41 96t98 40q56 0 96.5 -40.5t40.5 -95.5q0 -58 -40.5 -98.5t-96.5 -40.5q-57 0 -98 40.5t-41 98.5zM1075 1894q0 56 41 96t98 40
q56 0 97 -40.5t41 -95.5q0 -58 -41 -98.5t-97 -40.5q-57 0 -98 40.5t-41 98.5z" />
    <glyph glyph-name="wdieresis" unicode="&#x1e85;" horiz-adv-x="1607" 
d="M332 307l-312 1055h244l205 -772l203 772h264l203 -772l204 772h244l-311 -1055h-275l-196 727l-199 -727h-274zM483 1624q0 55 41.5 95t98.5 40q56 0 96.5 -40t40.5 -95q0 -58 -40.5 -98.5t-96.5 -40.5q-57 0 -98.5 40.5t-41.5 98.5zM852 1624q0 55 41 95t98 40
q56 0 96.5 -40t40.5 -95q0 -58 -40.5 -98.5t-96.5 -40.5q-57 0 -98 40.5t-41 98.5z" />
    <glyph glyph-name="uni1E9E" unicode="&#x1e9e;" horiz-adv-x="1599" 
d="M1030 276q-217 -1 -345.5 95t-131.5 262h231q7 -60 73.5 -94.5t172.5 -34.5q119 0 187.5 34.5t68.5 94.5q0 37 -96 88t-252 92q-143 39 -226 115.5t-83 175.5q0 131 131.5 208.5t355.5 78.5h17q-10 73 -114.5 119.5t-273.5 52.5q-157 -6 -251 -56t-97 -127v-1075h-243
l2 1116q6 157 162 251t417 97h10h9q281 -3 447.5 -97t172.5 -251q0 -119 -70 -188.5t-190 -69.5q-124 0 -189 -21.5t-65 -58.5q0 -22 65 -45.5t185 -56.5t184 -57q115 -42 179.5 -117t64.5 -174q0 -163 -137.5 -259t-370.5 -98z" />
    <glyph glyph-name="Ygrave" unicode="&#x1ef2;" horiz-adv-x="1546" 
d="M643 307v516l-616 815h313l438 -583l428 583h314l-609 -815v-516h-268zM532 2001h285l197 -279h-223z" />
    <glyph glyph-name="ygrave" unicode="&#x1ef3;" horiz-adv-x="1255" 
d="M264 104q71 3 130.5 48t90.5 118l17 37l-482 1055h265l340 -776l342 776h268l-520 -1155q-65 -143 -181 -226t-251 -83zM285 1724h284l197 -278h-223z" />
    <glyph glyph-name="endash" unicode="&#x2013;" horiz-adv-x="1413" 
d="M154 745v248h1106v-248h-1106z" />
    <glyph glyph-name="emdash" unicode="&#x2014;" horiz-adv-x="1978" 
d="M154 745v248h1671v-248h-1671z" />
    <glyph glyph-name="quoteleft" unicode="&#x2018;" horiz-adv-x="526" 
d="M154 1575q0 85 59 133.5t160 48.5v-119q-41 -3 -62.5 -37.5t-15.5 -89.5h78v-219h-219v283z" />
    <glyph glyph-name="quoteright" unicode="&#x2019;" horiz-adv-x="348" 
d="M297 1475q0 -85 -59 -134t-160 -49v119q41 3 62.5 37.5t15.5 89.5h-78v219h219v-282z" />
    <glyph glyph-name="quotesinglbase" unicode="&#x201a;" horiz-adv-x="567" 
d="M154 117q63 3 94.5 52t23.5 132h-118v260h260v-303q0 -120 -72 -192t-188 -72v123z" />
    <glyph glyph-name="quotedblleft" unicode="&#x201c;" horiz-adv-x="755" 
d="M152 1575q0 85 59 133.5t160 48.5v-119q-41 -3 -62.5 -37.5t-15.5 -89.5h78v-219h-219v283zM459 1292v283q0 85 59 133.5t160 48.5v-119q-41 -3 -62.5 -37.5t-15.5 -89.5h78v-219h-219z" />
    <glyph glyph-name="quotedblright" unicode="&#x201d;" horiz-adv-x="757" 
d="M604 1475q0 -85 -59 -134t-160 -49v119q41 3 62.5 37.5t15.5 89.5h-78v219h219v-282zM78 1292v119q41 3 62.5 37.5t15.5 89.5h-78v219h219v-282q0 -85 -59 -134t-160 -49z" />
    <glyph glyph-name="quotedblbase" unicode="&#x201e;" horiz-adv-x="909" 
d="M154 117q63 3 94.5 52t23.5 132h-118v260h260v-303q0 -120 -72 -192t-188 -72v123zM496 -6v123q63 3 94.5 52t23.5 132h-118v260h260v-303q0 -120 -72 -192t-188 -72z" />
    <glyph glyph-name="dagger" unicode="&#x2020;" horiz-adv-x="935" 
d="M338 307v813h-184v248h184v356h256l2 -356h186v-248h-186l2 -813h-260z" />
    <glyph glyph-name="daggerdbl" unicode="&#x2021;" horiz-adv-x="935" 
d="M338 307v447h-184v247h184v119h-184v248h184v356h256l2 -356h186v-248h-186v-119h186v-247h-186l2 -447h-260z" />
    <glyph glyph-name="bullet" unicode="&#x2022;" horiz-adv-x="1089" 
d="M545 713q-163 0 -277 114t-114 277t114 277t277 114t277 -114t114 -277t-114 -277t-277 -114z" />
    <glyph glyph-name="ellipsis" unicode="&#x2026;" horiz-adv-x="1378" 
d="M154 301v260h260v-260h-260zM610 301v260h260v-260h-260zM1067 301v260h260v-260h-260z" />
    <glyph glyph-name="guilsinglleft" unicode="&#x2039;" horiz-adv-x="659" 
d="M338 469l-318 446l318 447h301l-324 -447l324 -446h-301z" />
    <glyph glyph-name="guilsinglright" unicode="&#x203a;" horiz-adv-x="659" 
d="M322 469h-302l324 446l-324 447h302l317 -447z" />
    <glyph glyph-name="Euro" unicode="&#x20ac;" horiz-adv-x="1650" 
d="M913 272q-226 0 -385 108.5t-229 305.5h-217v248h172l-2 49v45h-170v248h217q68 197 227.5 305.5t386.5 108.5q259 0 437.5 -114.5t222.5 -309.5h-273q-19 82 -123 129t-264 47q-104 0 -184.5 -43t-130.5 -123h518v-248h-590l-2 -43q0 -35 2 -51h590v-248h-516
q103 -166 313 -166q160 0 264 48t123 130h273q-43 -196 -221 -311t-439 -115z" />
    <glyph glyph-name="trademark" unicode="&#x2122;" horiz-adv-x="1546" 
d="M713 1090v573h157l183 -406l180 406h160v-573h-144v268l-123 -266v-2h-149v2l-121 262v-264h-143zM25 1518v139h659v-139h-258l2 -435h-143l-2 435h-258z" />
    <glyph glyph-name="minus" unicode="&#x2212;" horiz-adv-x="1413" 
d="M154 881v247h1106v-247h-1106z" />
    <glyph glyph-name="notequal" unicode="&#x2260;" horiz-adv-x="1413" 
d="M295 387l92 215h-233v248h342l122 285h-464v247h571l68 158h282l-69 -158h254v-247h-363l-125 -285h488v-248h-596l-95 -215h-274z" />
    <glyph glyph-name="lessequal" unicode="&#x2264;" horiz-adv-x="1097" 
d="M944 6h-696v248h696v-248zM154 981l677 395v-270l-446 -258l446 -258v-271l-675 396z" />
    <glyph glyph-name="greaterequal" unicode="&#x2265;" horiz-adv-x="1097" 
d="M154 6v248h696v-248h-696zM266 319v271l447 258l-447 258v270l678 -395l-2 -266z" />
    <glyph glyph-name="uniE001" unicode="&#xe001;" horiz-adv-x="1204" 
d="M604 244q-263 0 -418.5 148t-158.5 401h258q3 -138 89 -219.5t230 -81.5q121 0 194.5 81.5t78.5 219.5l-3 845h246l2 -845q-3 -254 -142.5 -401.5t-375.5 -147.5zM877 1722l196 279h285l-258 -279h-223z" />
    <glyph glyph-name="uniE002" unicode="&#xe002;" horiz-adv-x="643" 
d="M-55 104q38 2 64.5 4.5t64.5 8.5t64.5 17.5t52 28t39.5 43t16 60.5v1096h243v-1096q-4 -107 -43.5 -180.5t-113.5 -114t-166.5 -57t-220.5 -16.5v206zM238 1446l196 278h285l-258 -278h-223z" />
    <glyph glyph-name="uniE003" unicode="&#xe003;" horiz-adv-x="1290" 
d="M412 1141v-836h-244l2 836h-150v227h150v115q6 132 128.5 209t326.5 77v-206q-95 -3 -152.5 -35.5t-60.5 -85.5v-74h403v115q6 132 128.5 209t326.5 77v-206q-95 -3 -152.5 -35.5t-60.5 -85.5v-74h196v-227h-196v-836h-244l2 836h-403z" />
    <glyph glyph-name="uniE004" unicode="&#xe004;" horiz-adv-x="1128" 
d="M772 307v834h-360v-836h-244l2 836h-150v227h150v115q6 132 128.5 209t326.5 77v-206q-95 -3 -152.5 -35.5t-60.5 -85.5v-74h604v-1061h-244z" />
    <glyph glyph-name="uniE007" unicode="&#xe007;" horiz-adv-x="1380" 
d="M436 1141v-584q3 -32 49.5 -53.5t122.5 -24.5v-213q-185 0 -296.5 63t-116.5 169l-2 643h-173v227h173v356h243v-356h428v356h244v-356h213v-227h-213v-584q3 -32 49.5 -53.5t122.5 -24.5v-213q-186 0 -297.5 63t-116.5 169l-2 643h-428z" />
    <glyph glyph-name="asterisk.001" horiz-adv-x="821" 
d="M51 1354q5 3 109 53l35 16l-41 19q-12 6 -47 23t-56 28l94 164q46 -33 72 -49l62 -43l6 -97q22 11 37 21l36 22q6 -4 19.5 -11t19.5 -11l37 -21l6 97l64 43q34 24 69 49l95 -164q-5 -3 -109 -53l-35 -17l41 -18q12 -6 47 -23t56 -28l-95 -164q-52 37 -71 49l-62 43l-6 96
q-28 -14 -37 -20l-37 -23q-6 4 -19 11.5t-19 11.5l-37 20l-6 -96l-64 -43q-6 -4 -20 -14t-26.5 -18.5t-23.5 -16.5zM266 1122q1 23 4 64t4 59l5 37q72 48 81 53q5 -3 80 -53l4 -37q1 -18 4.5 -59t4.5 -64h-187zM266 1724h187q-1 -23 -4.5 -63.5t-4.5 -58.5l-4 -37
q-76 -51 -82 -54q-16 9 -43.5 29t-35.5 25l-5 37q-1 18 -4 58.5t-4 63.5z" />
    </font>
</defs>
</svg>
